<?xml version="1.0" encoding="UTF-8" standalone="no"?>
<!-- Created with Inkscape (http://www.inkscape.org/) -->

<svg
   width="66.523529mm"
   height="33.898342mm"
   viewBox="0 0 66.523529 33.898342"
   version="1.1"
   id="svg5"
   xmlns="http://www.w3.org/2000/svg"
   xmlns:svg="http://www.w3.org/2000/svg">
  <defs
     id="defs2">
    <rect
       x="198.98398"
       y="120.87341"
       width="70.104668"
       height="19.260443"
       id="rect35542" />
    <rect
       x="84.738701"
       y="67.568542"
       width="79.993538"
       height="35.886135"
       id="rect28901" />
    <rect
       x="155.60017"
       y="70.877579"
       width="121.72986"
       height="14.425707"
       id="rect19025" />
    <rect
       x="115.94005"
       y="109.73259"
       width="63.103161"
       height="14.772914"
       id="rect4302" />
    <marker
       style="overflow:visible"
       id="marker1391"
       refX="0"
       refY="0"
       orient="auto">
      <path
         transform="matrix(-0.3,0,0,-0.3,0.69,0)"
         d="M 8.7185878,4.0337352 -2.2072895,0.01601326 8.7185884,-4.0017078 c -1.7454984,2.3720609 -1.7354408,5.6174519 -6e-7,8.035443 z"
         style="fill:context-stroke;fill-rule:evenodd;stroke:context-stroke;stroke-width:0.625;stroke-linejoin:round"
         id="path1389" />
    </marker>
    <marker
       style="overflow:visible"
       id="marker1391-2"
       refX="0"
       refY="0"
       orient="auto">
      <path
         transform="matrix(-0.3,0,0,-0.3,0.69,0)"
         d="M 8.7185878,4.0337352 -2.2072895,0.01601326 8.7185884,-4.0017078 c -1.7454984,2.3720609 -1.7354408,5.6174519 -6e-7,8.035443 z"
         style="fill:context-stroke;fill-rule:evenodd;stroke:context-stroke;stroke-width:0.625;stroke-linejoin:round"
         id="path1389-9" />
    </marker>
    <marker
       style="overflow:visible"
       id="marker1391-3"
       refX="0"
       refY="0"
       orient="auto">
      <path
         transform="matrix(-0.3,0,0,-0.3,0.69,0)"
         d="M 8.7185878,4.0337352 -2.2072895,0.01601326 8.7185884,-4.0017078 c -1.7454984,2.3720609 -1.7354408,5.6174519 -6e-7,8.035443 z"
         style="fill:context-stroke;fill-rule:evenodd;stroke:context-stroke;stroke-width:0.625;stroke-linejoin:round"
         id="path1389-5" />
    </marker>
  </defs>
  <g
     id="layer1"
     transform="translate(-5.0237015,-9.8595607)">
    <rect
       style="fill:#afc6e9;stroke-width:0.264999"
       id="rect846"
       width="34.666428"
       height="17.797497"
       x="17.620182"
       y="23.960407" />
    <path
       style="fill:none;stroke:#000000;stroke-width:0.565;stroke-linecap:butt;stroke-linejoin:miter;stroke-miterlimit:4;stroke-dasharray:none;stroke-opacity:1;marker-end:url(#marker1391)"
       d="m 28.641606,11.88093 0.0735,14.668888"
       id="path1093" />
    <path
       style="fill:none;stroke:#000000;stroke-width:0.565;stroke-linecap:butt;stroke-linejoin:miter;stroke-miterlimit:4;stroke-dasharray:none;stroke-opacity:1;marker-end:url(#marker1391-2)"
       d="M 32.388766,27.016808 32.490754,12.676505"
       id="path1093-4" />
    <path
       style="fill:none;stroke:#000000;stroke-width:0.565;stroke-linecap:butt;stroke-linejoin:miter;stroke-miterlimit:4;stroke-dasharray:none;stroke-opacity:1;marker-end:url(#marker1391-3)"
       d="m 48.913641,32.721931 13.033862,-0.04375"
       id="path1093-1" />
    <path
       d="m 39.076309,12.561448 c 0.06906,-0.02893 0.147449,-0.02053 0.209975,0.02053 l 0.81937,0.543135 0.81937,-0.543135 c 0.06253,-0.04106 0.140917,-0.04853 0.209975,-0.02053 0.06906,0.028 0.117587,0.08959 0.132518,0.16238 l 0.195044,0.963087 0.963086,0.195043 c 0.07279,0.01493 0.134384,0.06533 0.16238,0.133451 0.028,0.06813 0.02053,0.147449 -0.02053,0.209975 l -0.543135,0.81937 0.543135,0.81937 c 0.04106,0.06253 0.04853,0.140917 0.02053,0.209976 -0.02799,0.06906 -0.08959,0.119452 -0.16238,0.13345 l -0.96402,0.194111 -0.19411,0.964019 c -0.01493,0.07279 -0.06533,0.134384 -0.133451,0.162381 -0.06812,0.02799 -0.147449,0.02053 -0.209975,-0.02053 l -0.81937,-0.543136 -0.81937,0.543136 c -0.06253,0.04106 -0.140917,0.04853 -0.209975,0.02053 -0.06906,-0.028 -0.119453,-0.08959 -0.133451,-0.162381 l -0.19411,-0.964019 -0.96402,-0.195044 c -0.07279,-0.01493 -0.134384,-0.06533 -0.162381,-0.133451 -0.028,-0.06813 -0.02053,-0.147449 0.02053,-0.209975 l 0.543135,-0.818437 -0.543135,-0.81937 c -0.04106,-0.06253 -0.04853,-0.140917 -0.02053,-0.209975 0.02799,-0.06906 0.08959,-0.119453 0.162381,-0.133451 l 0.96402,-0.19411 0.195043,-0.96402 c 0.01493,-0.07279 0.06533,-0.134384 0.133451,-0.16238 z m 0.274368,2.483306 c 0,-0.414351 0.33596,-0.750311 0.750311,-0.750311 0.414351,0 0.750311,0.33596 0.750311,0.750311 0,0.414352 -0.33596,0.750312 -0.750311,0.750312 -0.414351,0 -0.750311,-0.33596 -0.750311,-0.750312 z m 1.94857,0 c 0,-0.661655 -0.536604,-1.198258 -1.198259,-1.198258 -0.661655,0 -1.198258,0.536603 -1.198258,1.198258 0,0.661655 0.536603,1.198259 1.198258,1.198259 0.661655,0 1.198259,-0.536604 1.198259,-1.198259 z"
       id="path1611"
       style="stroke-width:0.00933223" />
    <path
       d="m 19.806916,15.088678 c -0.517577,0 -0.937499,-0.419922 -0.937499,-0.937499 0,-0.41504 0.269531,-0.767578 0.643554,-0.890625 -0.01269,-0.06543 -0.01855,-0.133789 -0.01855,-0.203125 0,-0.604492 0.489257,-1.09375 1.093749,-1.09375 0.420898,0 0.786133,0.237305 0.96875,0.585937 0.143555,-0.166992 0.356445,-0.273437 0.593749,-0.273437 0.431641,0 0.781251,0.349609 0.781251,0.78125 0,0.05371 -0.0059,0.105469 -0.01563,0.15625 0.0049,0 0.01074,0 0.01563,0 0.517577,0 0.937499,0.419922 0.937499,0.9375 0,0.517577 -0.419922,0.937499 -0.937499,0.937499 z m 0.01563,0.666015 c 0.01074,-0.02441 0.03516,-0.04101 0.0625,-0.04101 0.02735,0 0.05176,0.01563 0.0625,0.04101 l 0.294921,0.666016 c 0.02149,0.04981 0.0332,0.102539 0.0332,0.15625 0,0.213867 -0.176758,0.386718 -0.390625,0.386718 -0.213866,0 -0.390624,-0.172851 -0.390624,-0.386718 0,-0.05371 0.01172,-0.107422 0.0332,-0.15625 z m 1.484374,0 c 0.01074,-0.02441 0.03516,-0.04101 0.0625,-0.04101 0.02735,0 0.05176,0.01563 0.0625,0.04101 l 0.294922,0.666016 c 0.02149,0.04981 0.0332,0.102539 0.0332,0.15625 0,0.213867 -0.176758,0.386718 -0.390625,0.386718 -0.213867,0 -0.390624,-0.172851 -0.390624,-0.386718 0,-0.05371 0.01172,-0.107422 0.0332,-0.15625 z m 1.189452,0.666016 0.294922,-0.666016 c 0.01074,-0.02441 0.03516,-0.04101 0.0625,-0.04101 0.02735,0 0.05176,0.01563 0.0625,0.04101 l 0.294922,0.666016 c 0.02149,0.04981 0.0332,0.102539 0.0332,0.15625 0,0.213867 -0.176757,0.386718 -0.390625,0.386718 -0.213867,0 -0.390625,-0.172851 -0.390625,-0.386718 0,-0.05371 0.01172,-0.107422 0.0332,-0.15625 z"
       id="path1620"
       style="stroke-width:0.00976561" />
    <path
       d="m 58.149186,28.088995 c 0.20213,0.15233 0.449178,0.299778 0.724544,0.336884 0.127918,0.01758 0.246072,-0.07324 0.263648,-0.201154 0.01758,-0.127918 -0.07324,-0.246072 -0.201153,-0.263648 -0.15526,-0.02051 -0.32419,-0.110342 -0.504838,-0.246072 -0.374966,-0.283178 -0.88371,-0.283178 -1.259653,0 -0.234353,0.176742 -0.397425,0.256813 -0.532178,0.256813 -0.134754,0 -0.297825,-0.08007 -0.532179,-0.256813 -0.374966,-0.283178 -0.88371,-0.283178 -1.259653,0 -0.180648,0.13573 -0.349578,0.225566 -0.504837,0.246072 -0.127918,0.01758 -0.218731,0.134753 -0.201154,0.263648 0.01757,0.128895 0.134753,0.21873 0.263648,0.201154 0.275366,-0.03711 0.52339,-0.184554 0.724545,-0.336884 0.207989,-0.157213 0.48726,-0.157213 0.69525,0 0.236306,0.178695 0.510696,0.350555 0.81438,0.350555 0.303683,0 0.577096,-0.172837 0.81438,-0.350555 0.207989,-0.157213 0.48726,-0.157213 0.69525,0 z m 0,1.406124 c 0.20213,0.15233 0.449178,0.299778 0.724544,0.336884 0.127918,0.01758 0.246072,-0.07324 0.263648,-0.201154 0.01758,-0.127918 -0.07324,-0.246072 -0.201153,-0.263648 -0.15526,-0.02051 -0.32419,-0.110342 -0.504838,-0.246072 -0.374966,-0.283178 -0.88371,-0.283178 -1.259653,0 -0.234353,0.176742 -0.397425,0.256813 -0.532178,0.256813 -0.134754,0 -0.297825,-0.08007 -0.532179,-0.256813 -0.374966,-0.283178 -0.88371,-0.283178 -1.259653,0 -0.180648,0.13573 -0.349578,0.225566 -0.504837,0.246072 -0.127918,0.0166 -0.218731,0.134753 -0.201154,0.263648 0.01757,0.128895 0.134753,0.21873 0.263648,0.201154 0.275366,-0.03711 0.52339,-0.184554 0.724545,-0.336884 0.207989,-0.157213 0.48726,-0.157213 0.69525,0 0.236306,0.178695 0.510696,0.350554 0.81438,0.350554 0.303683,0 0.577096,-0.172836 0.81438,-0.350554 0.207989,-0.157213 0.48726,-0.157213 0.69525,0 z m -0.69525,1.406124 c 0.207989,-0.157213 0.48726,-0.157213 0.69525,0 0.20213,0.15233 0.449178,0.299778 0.724544,0.336883 0.127918,0.01758 0.246072,-0.07324 0.263648,-0.201153 0.01758,-0.127918 -0.07324,-0.246072 -0.201153,-0.263648 -0.15526,-0.02051 -0.32419,-0.110342 -0.504838,-0.246072 -0.374966,-0.283178 -0.88371,-0.283178 -1.259653,0 -0.234353,0.176742 -0.397425,0.256813 -0.532178,0.256813 -0.134754,0 -0.297825,-0.08007 -0.532179,-0.256813 -0.374966,-0.283178 -0.88371,-0.283178 -1.259653,0 -0.180648,0.13573 -0.349578,0.225566 -0.504837,0.246072 -0.127918,0.01758 -0.218731,0.134753 -0.201154,0.263648 0.01757,0.128894 0.134753,0.21873 0.263648,0.201153 0.275366,-0.03711 0.52339,-0.184553 0.724545,-0.336883 0.207989,-0.157213 0.48726,-0.157213 0.69525,0 0.236306,0.178695 0.510696,0.350554 0.81438,0.350554 0.303683,0 0.577096,-0.172836 0.81438,-0.350554 z"
       id="path1629"
       style="stroke-width:0.00976475" />
    <text
       xml:space="preserve"
       transform="matrix(0.26458333,0,0,0.26458333,-3.1448896,1.8230446)"
       id="text4300"
       style="font-size:10.6667px;line-height:1.25;font-family:sans-serif;white-space:pre;shape-inside:url(#rect4302)"><tspan
         x="115.93945"
         y="119.16995"
         id="tspan51452">Storage <tspan
   style="font-style:italic;-inkscape-font-specification:'sans-serif, Italic'"
   id="tspan51450">S</tspan></tspan></text>
    <text
       xml:space="preserve"
       transform="matrix(0.26458333,0,0,0.26458333,-6.8684651,-0.13324928)"
       id="text19023"
       style="font-size:10.6667px;line-height:1.25;font-family:sans-serif;white-space:pre;shape-inside:url(#rect19025)"><tspan
         x="155.59961"
         y="80.314483"
         id="tspan51454">evapotranspiration ET</tspan></text>
    <text
       xml:space="preserve"
       transform="matrix(0.26458333,0,0,0.26458333,-15.652951,1.0040159)"
       id="text28899"
       style="font-size:10.6667px;line-height:1.25;font-family:sans-serif;white-space:pre;shape-inside:url(#rect28901)"><tspan
         x="84.738281"
         y="77.005889"
         id="tspan51458">precipitation <tspan
   style="font-style:italic;-inkscape-font-specification:'sans-serif, Italic'"
   id="tspan51456">P</tspan></tspan></text>
    <text
       xml:space="preserve"
       transform="matrix(0.26458333,0,0,0.26458333,0.13952804,2.5904491)"
       id="text35540"
       style="font-size:10.6667px;line-height:1.25;font-family:sans-serif;white-space:pre;shape-inside:url(#rect35542)"><tspan
         x="198.98438"
         y="130.31058"
         id="tspan51462">discharge <tspan
   style="font-style:italic;-inkscape-font-specification:'sans-serif, Italic'"
   id="tspan51460">Q</tspan></tspan></text>
  </g>
</svg>
