<svg xmlns="http://www.w3.org/2000/svg" xmlns:xlink="http://www.w3.org/1999/xlink" xmlns:inkscape="http://www.inkscape.org/namespaces/inkscape" version="1.1" width="302.574" height="307.721" viewBox="0 0 302.574 307.721">
<defs>
<path id="font_1_3" d="M.21598816 .5676117 .34700013 0H.49699403L.6259918 .5676117V0H.776001V.7285156H.5499878L.42199708 .14889527 .2899933 .7285156H.06599426V0H.21598816V.5676117Z"/>
<path id="font_1_1" d="M.07699585 0H.3619995C.47299195 0 .54299929 .025985718 .59199526 .084991458 .6499939 .15296936 .68099978 .25186158 .68099978 .3647461 .68099978 .4766388 .6499939 .575531 .59199526 .64450076 .54299929 .70350649 .47399903 .7285156 .3619995 .7285156H.07699585V0M.22698975 .125V.60350039H.3619995C.47499085 .60350039 .5309906 .5245819 .5309906 .36375428 .5309906 .20391846 .47499085 .125 .3619995 .125H.22698975Z"/>
<path id="font_1_5" d="M.5039978 .7285156V.23454285C.5039978 .14654541 .45899964 .10455322 .36499024 .10455322 .2709961 .10455322 .22599793 .14654541 .22599793 .23454285V.7285156H.07598877V.23454285C.07598877 .15255738 .09799194 .094558719 .14698792 .05055237 .19999695 .0025482178 .2769928-.0234375 .36499024-.0234375 .45298768-.0234375 .5299988 .0025482178 .58299258 .05055237 .6319885 .094558719 .6539917 .15255738 .6539917 .23454285V.7285156H.5039978Z"/>
<path id="font_1_4" d="M.3849945 .60350039H.59799197V.7285156H.01399231V.60350039H.23498535V0H.3849945V.60350039Z"/>
<path id="font_1_9" d="M.066986087 .7285156V0H.20698548V.3238678C.20698548 .38583375 .2519989 .42982484 .31498719 .42982484 .34498597 .42982484 .36898805 .41882325 .3849945 .39683534 .39698792 .3788452 .40098573 .3648529 .40098573 .3298645V0H.54100039V.36184693C.54100039 .42881776 .522995 .4768219 .48599244 .50782778 .45498658 .5338135 .4099884 .5488281 .36499024 .5488281 .29599 .5488281 .24598694 .520813 .20698548 .4618225V.7285156H.066986087Z"/>
<path id="font_1_7" d="M.5239868 .22558594C.5249939 .23757935 .5249939 .24258423 .5249939 .24957276 .5249939 .3035736 .5169983 .35365296 .5039978 .39172364 .46798707 .4898224 .3809967 .5488281 .27198792 .5488281 .116989139 .5488281 .021987915 .43681336 .021987915 .25558473 .021987915 .08255005 .115997318-.0234375 .2689972-.0234375 .3899994-.0234375 .48799134 .045547487 .5189972 .15156555H.3809967C.3639984 .108566287 .32499696 .08355713 .27398683 .08355713 .23399353 .08355713 .20199585 .10055542 .18199158 .13056946 .16899109 .15057373 .1639862 .1745758 .1619873 .22558594H.5239868M.1639862 .318573C.17298889 .40074159 .20799256 .44181825 .269989 .44181825 .30499269 .44181825 .33699037 .42478944 .35699464 .39672853 .36999513 .37669374 .37599183 .35565187 .3789978 .318573H.1639862Z"/>
<path id="font_1_12" d="M.30099488 .5488281C.13598633 .5488281 .034988405 .43981935 .034988405 .26268006 .034988405 .08454895 .13598633-.0234375 .3019867-.0234375 .46598817-.0234375 .56900027 .08555603 .56900027 .25868226 .56900027 .44181825 .46998597 .5488281 .30099488 .5488281M.3019867 .43582154C.3789978 .43582154 .42900086 .36676026 .42900086 .26068116 .42900086 .15960694 .3769989 .08955383 .3019867 .08955383 .22599793 .08955383 .1749878 .15960694 .1749878 .26268006 .1749878 .36576844 .22599793 .43582154 .3019867 .43582154Z"/>
<path id="font_1_13" d="M.06298828 .54003909V0H.20298767V.28701783C.20298767 .3688202 .24398804 .40982057 .32598878 .40982057 .34098817 .40982057 .35099793 .40881349 .36999513 .40582276V.54782107C.3619995 .5488281 .35699464 .5488281 .35299684 .5488281 .2889862 .5488281 .23298645 .5068207 .20298767 .43382264V.54003909H.06298828Z"/>
<path id="font_1_14" d="M.3939972 .54003909 .28199769 .1468811 .16299439 .54003909H.008987427L.20999146-.02218628V-.0231781-.026184082C.20999146-.07720947 .17199707-.11621094 .12298584-.11621094 .11199951-.11621094 .10398865-.115219119 .085998538-.11021423V-.21522522C.10699463-.21821594 .11898804-.21922302 .13598633-.21922302 .17098999-.21922302 .21299744-.21221924 .23699951-.20222473 .27598573-.18621826 .29299928-.16322327 .31599427-.09921265L.5379944 .54003909H.3939972Z"/>
<path id="font_1_15" d="M.6819916 .4820404C.6769867 .54512026 .6639862 .5851593 .6329956 .62620547 .57699587 .7002106 .4869995 .74121096 .37799073 .74121096 .17199707 .74121096 .04399109 .59417727 .04399109 .35787965 .04399109 .12358093 .17098999-.0234375 .37399293-.0234375 .5549927-.0234375 .6759949 .08155823 .68499758 .24873352H.5389862C.5299988 .15562439 .47099305 .10255432 .37799073 .10255432 .2619934 .10255432 .19400025 .19667053 .19400025 .35588075 .19400025 .5170746 .2649994 .61320498 .3829956 .61320498 .43499757 .61320498 .47799684 .5951843 .5059967 .5601349 .5219879 .54011538 .5299988 .52108767 .5389862 .4820404H.6819916Z"/>
<path id="font_1_6" d="M.40499879-.00044250489H.54499819V.7285156H.40499879V.46981813C.36999513 .52381899 .32299806 .5488281 .2559967 .5488281 .1269989 .5488281 .0289917 .42481996 .0289917 .26168824 .0289917 .18862915 .050994874 .11457825 .08699036 .062561038 .12399292 .010559082 .18998719-.0234375 .2559967-.0234375 .32299806-.0234375 .36999513 .0015563965 .40499879 .05455017V-.00044250489M.2869873 .43182374C.35798646 .43182374 .40499879 .36276246 .40499879 .25968934 .40499879 .16160584 .35699464 .093551639 .2869873 .093551639 .21699524 .093551639 .16899109 .16261292 .16899109 .26168824 .16899109 .36177064 .21699524 .43182374 .2869873 .43182374Z"/>
<path id="font_1_10" d="M.20698548 .53956606H.066986087V0H.20698548V.53956606M.20698548 .7285156H.066986087V.60350039H.20698548V.7285156Z"/>
<path id="font_1_11" d="M.06298828 .54003909V0H.20298767V.3240204C.20298767 .38783265 .24798584 .42982484 .31599427 .42982484 .37599183 .42982484 .4059906 .39683534 .4059906 .33285523V0H.54599V.36184693C.54599 .4808197 .47999574 .5488281 .36499024 .5488281 .2919922 .5488281 .24299622 .52182009 .20298767 .4618225V.54003909H.06298828Z"/>
<path id="font_1_8" d="M.4079895 .53982546V.45681764C.3659973 .520813 .31999208 .5488281 .2579956 .5488281 .12998963 .5488281 .033996583 .42381288 .033996583 .25668336 .033996583 .08856201 .12199402-.0234375 .25498963-.0234375 .31799317-.0234375 .35598756-.0044403078 .4079895 .05455017V-.018447876C.4079895-.083618167 .35899354-.12875366 .2889862-.12875366 .23599243-.12875366 .20098877-.10668945 .18998719-.06556702H.04499817C.04598999-.10769653 .06199646-.13676453 .09799194-.1667633 .14099121-.20175171 .20098877-.21875 .28399659-.21875 .44699098-.21875 .54100039-.14575196 .54100039-.018447876V.53982546H.4079895M.28799439 .43182374C.35798646 .43182374 .4099884 .35876466 .4099884 .25868226 .4099884 .16061402 .35899354 .093551639 .28599549 .093551639 .21998596 .093551639 .17399597 .16061402 .17399597 .25868226 .17399597 .36076356 .21998596 .43182374 .28799439 .43182374Z"/>
<path id="font_1_2" d="M.22898865 .31347657H.5779877V.43847657H.22898865V.60350039H.60598757V.7285156H.07899475V0H.6239929V.125H.22898865V.31347657Z"/>
</defs>
<path transform="matrix(1,0,0,-1,154.026,151.524)" d="M0 0V0L-54.00797-31.18121C-71.22874-1.35388-61.00876 36.78745-31.18143 54.00821-21.70367 59.4798-10.9441 62.36311 0 62.36311Z" fill="#99c8e7"/>
<path transform="matrix(1,0,0,-1,154.026,151.524)" d="M0 0V0L54.00797-31.18121C36.7872-61.00854-1.35413-71.22853-31.18146-54.00775-40.65921-48.53616-48.5364-40.65897-54.008-31.18121Z" fill="#f8c3b3"/>
<path transform="matrix(1,0,0,-1,154.026,151.524)" d="M0 0V0 62.36288C34.4425 62.36288 62.36288 34.4425 62.36288 0 62.36288-10.94412 59.47957-21.70369 54.00798-31.18144Z" fill="#99d7c9"/>
<path transform="matrix(1,0,0,-1,154.026,151.524)" d="M0 62.36288C-34.4425 62.36288-62.36288 34.4425-62.36288 0-62.36288-10.94412-59.47957-21.70369-54.00798-31.18144L-66.28253-38.26791C-87.41713-1.66164-74.8744 45.14816-38.26811 66.28276-26.63632 72.9979-13.43143 76.5365 0 76.5365Z" fill="#3391ce"/>
<path transform="matrix(1,0,0,-1,154.026,151.524)" d="M-54.00797-31.18121C-36.7872-61.00854 1.35413-71.22853 31.18146-54.00775 40.65921-48.53616 48.5364-40.65897 54.008-31.18121L66.28253-38.26791C45.14793-74.8742-1.66185-87.41693-38.26814-66.28233-49.89993-59.5672-59.56743-49.8997-66.28256-38.26791Z" fill="#f18668"/>
<path transform="matrix(1,0,0,-1,154.026,151.524)" d="M54.00797-31.18121C71.22874-1.35388 61.00876 36.78745 31.18143 54.00821 21.70367 59.4798 10.9441 62.36311 0 62.36311V76.53629C42.27036 76.53629 76.53629 42.27036 76.53629 0 76.53629-13.43144 72.99768-26.63634 66.28255-38.26813Z" fill="#33af92"/>
<path transform="matrix(1,0,0,-1,154.026,151.524)" d="M0 76.53629C-42.27036 76.53629-76.53629 42.27036-76.53629 0-76.53629-13.43144-72.99768-26.63634-66.28255-38.26813L-108.01596-62.36288C-142.45752-2.7082-122.01753 73.57443-62.36285 108.01599-43.40735 118.95918-21.88824 124.72578 .00002 124.72578Z" fill="#006aaf"/>
<path transform="matrix(1,0,0,-1,154.026,151.524)" d="M-66.28253-38.26791C-45.14793-74.8742 1.66185-87.41693 38.26814-66.28233 49.89993-59.5672 59.56743-49.8997 66.28256-38.26791L108.01596-62.36288C73.5744-122.01756-2.70824-142.45755-62.36292-108.01599-81.31844-97.0728-97.07283-81.3184-108.01602-62.36288Z" fill="#d55e3b"/>
<path transform="matrix(1,0,0,-1,154.026,151.524)" d="M66.28253-38.26791C87.41713-1.66164 74.8744 45.14816 38.26811 66.28276 26.63632 72.9979 13.43143 76.5365 0 76.5365V124.72578C68.88503 124.72578 124.72578 68.88503 124.72578 0 124.72578-21.88828 118.95918-43.40738 108.01599-62.36288Z" fill="#008b6b"/>
<path transform="matrix(1,0,0,-1,154.026,151.524)" stroke-width="1.79329" stroke-linecap="butt" stroke-miterlimit="10" stroke-linejoin="miter" fill="none" stroke="#ffffff" d="M0 0V124.72578"/>
<path transform="matrix(1,0,0,-1,154.026,151.524)" stroke-width="1.79329" stroke-linecap="butt" stroke-miterlimit="10" stroke-linejoin="miter" fill="none" stroke="#ffffff" d="M0 0-108.01596-62.36288"/>
<path transform="matrix(1,0,0,-1,154.026,151.524)" stroke-width="1.79329" stroke-linecap="butt" stroke-miterlimit="10" stroke-linejoin="miter" fill="none" stroke="#ffffff" d="M0 0 108.01596-62.36288"/>
<path transform="matrix(1,0,0,-1,154.026,151.524)" stroke-width=".99628" stroke-linecap="butt" stroke-miterlimit="10" stroke-linejoin="miter" fill="none" stroke="#ffffff" d="M62.36288 0C62.36288 34.4425 34.4425 62.36288 0 62.36288-34.4425 62.36288-62.36288 34.4425-62.36288 0-62.36288-34.4425-34.4425-62.36288 0-62.36288 34.4425-62.36288 62.36288-34.4425 62.36288 0ZM0 0"/>
<path transform="matrix(1,0,0,-1,154.026,151.524)" stroke-width=".99628" stroke-linecap="butt" stroke-miterlimit="10" stroke-linejoin="miter" fill="none" stroke="#ffffff" d="M76.53629 0C76.53629 42.27036 42.27036 76.53629 0 76.53629-42.27036 76.53629-76.53629 42.27036-76.53629 0-76.53629-42.27036-42.27036-76.53629 0-76.53629 42.27036-76.53629 76.53629-42.27036 76.53629 0ZM0 0"/>
<path transform="matrix(1,0,0,-1,154.026,151.524)" stroke-width="3.18808" stroke-linecap="butt" stroke-miterlimit="10" stroke-linejoin="miter" fill="none" stroke="#b9b9b9" d="M101.3389 95.56935C76.72113 125.97043 27.27686 144.94995-21.72865 137.18859-54.79817 131.95148-84.88142 114.9303-106.40213 89.28304"/>
<path transform="matrix(.62929,.77715,.77715,-.62929,251.06179,50.640466)" d="M13.16957 0 4.7237 3.2151 7.5694 0 4.7237-3.2151Z" fill="#b9b9b9"/>
<path transform="matrix(.62929,.77715,.77715,-.62929,251.06179,50.640466)" stroke-width="2.92531" stroke-linecap="butt" stroke-miterlimit="10" stroke-linejoin="miter" fill="none" stroke="#b9b9b9" d="M13.16957 0 4.7237 3.2151 7.5694 0 4.7237-3.2151Z"/>
<path transform="matrix(1,0,0,-1,154.026,151.524)" stroke-width="3.18808" stroke-linecap="butt" stroke-miterlimit="10" stroke-linejoin="miter" fill="none" stroke="#b9b9b9" d="M-133.4345 39.97702C-147.45305 3.45456-139.1682-48.85304-107.94472-87.41188-86.87544-113.43216-57.09314-130.97684-24.11899-136.79044"/>
<path transform="matrix(.35832,-.93358,-.93358,-.35832,18.141282,117.93086)" d="M13.16957 0 4.7237 3.2151 7.5694 0 4.7237-3.2151Z" fill="#b9b9b9"/>
<path transform="matrix(.35832,-.93358,-.93358,-.35832,18.141282,117.93086)" stroke-width="2.92531" stroke-linecap="butt" stroke-miterlimit="10" stroke-linejoin="miter" fill="none" stroke="#b9b9b9" d="M13.16957 0 4.7237 3.2151 7.5694 0 4.7237-3.2151Z"/>
<path transform="matrix(1,0,0,-1,154.026,151.524)" stroke-width="3.18808" stroke-linecap="butt" stroke-miterlimit="10" stroke-linejoin="miter" fill="none" stroke="#b9b9b9" d="M32.0958-135.54673C70.73363-129.42714 111.89307-96.09904 129.67298-49.77672 141.67108-18.51932 141.97415 16.04439 130.52288 47.50737"/>
<path transform="matrix(-.98767,.1564,.1564,.98767,192.87557,286.00123)" d="M13.16957 0 4.7237 3.2151 7.5694 0 4.7237-3.2151Z" fill="#b9b9b9"/>
<path transform="matrix(-.98767,.1564,.1564,.98767,192.87557,286.00123)" stroke-width="2.92531" stroke-linecap="butt" stroke-miterlimit="10" stroke-linejoin="miter" fill="none" stroke="#b9b9b9" d="M13.16957 0 4.7237 3.2151 7.5694 0 4.7237-3.2151Z"/>
<use data-text="M" xlink:href="#font_1_3" transform="matrix(17.2154,0,0,-17.2154,24.112,86.821018)" fill="#006aaf"/>
<use data-text="D" xlink:href="#font_1_1" transform="matrix(17.2154,0,0,-17.2154,147.812,299.419)" fill="#d55e3b"/>
<use data-text="U" xlink:href="#font_1_5" transform="matrix(17.2154,0,0,-17.2154,270.556,86.662)" fill="#007c5f"/>
<use data-text="T" xlink:href="#font_1_4" transform="matrix(9.9626,0,0,-9.9626,137.369,185.223)" fill="#d55e3b"/>
<use data-text="h" xlink:href="#font_1_9" transform="matrix(9.9626,0,0,-9.9626,143.45615,185.223)" fill="#d55e3b"/>
<use data-text="e" xlink:href="#font_1_7" transform="matrix(9.9626,0,0,-9.9626,149.54329,185.223)" fill="#d55e3b"/>
<use data-text="o" xlink:href="#font_1_12" transform="matrix(9.9626,0,0,-9.9626,155.08249,185.223)" fill="#d55e3b"/>
<use data-text="r" xlink:href="#font_1_13" transform="matrix(9.9626,0,0,-9.9626,161.16963,185.223)" fill="#d55e3b"/>
<use data-text="y" xlink:href="#font_1_14" transform="matrix(9.9626,0,0,-9.9626,165.14472,185.223)" fill="#d55e3b"/>
<use data-text="C" xlink:href="#font_1_15" transform="matrix(9.9626,0,0,-9.9626,136.871,223.58301)" fill="#ffffff"/>
<use data-text="o" xlink:href="#font_1_12" transform="matrix(9.9626,0,0,-9.9626,144.064,223.58301)" fill="#ffffff"/>
<use data-text="d" xlink:href="#font_1_6" transform="matrix(9.9626,0,0,-9.9626,150.15114,223.58301)" fill="#ffffff"/>
<use data-text="i" xlink:href="#font_1_10" transform="matrix(9.9626,0,0,-9.9626,156.23828,223.58301)" fill="#ffffff"/>
<use data-text="n" xlink:href="#font_1_11" transform="matrix(9.9626,0,0,-9.9626,159.00789,223.58301)" fill="#ffffff"/>
<use data-text="g" xlink:href="#font_1_8" transform="matrix(9.9626,0,0,-9.9626,165.09503,223.58301)" fill="#ffffff"/>
<use data-text="E" xlink:href="#font_1_2" transform="matrix(9.9626,0,0,-9.9626,125.240009,254.70601)" fill="#ffffff"/>
<use data-text="n" xlink:href="#font_1_11" transform="matrix(9.9626,0,0,-9.9626,131.88507,254.70601)" fill="#ffffff"/>
<use data-text="g" xlink:href="#font_1_8" transform="matrix(9.9626,0,0,-9.9626,137.9722,254.70601)" fill="#ffffff"/>
<use data-text="i" xlink:href="#font_1_10" transform="matrix(9.9626,0,0,-9.9626,144.05936,254.70601)" fill="#ffffff"/>
<use data-text="n" xlink:href="#font_1_11" transform="matrix(9.9626,0,0,-9.9626,146.82895,254.70601)" fill="#ffffff"/>
<use data-text="e" xlink:href="#font_1_7" transform="matrix(9.9626,0,0,-9.9626,152.9161,254.70601)" fill="#ffffff"/>
<use data-text="e" xlink:href="#font_1_7" transform="matrix(9.9626,0,0,-9.9626,158.45529,254.70601)" fill="#ffffff"/>
<use data-text="r" xlink:href="#font_1_13" transform="matrix(9.9626,0,0,-9.9626,163.9945,254.70601)" fill="#ffffff"/>
<use data-text="i" xlink:href="#font_1_10" transform="matrix(9.9626,0,0,-9.9626,167.86997,254.70601)" fill="#ffffff"/>
<use data-text="n" xlink:href="#font_1_11" transform="matrix(9.9626,0,0,-9.9626,170.63956,254.70601)" fill="#ffffff"/>
<use data-text="g" xlink:href="#font_1_8" transform="matrix(9.9626,0,0,-9.9626,176.72672,254.70601)" fill="#ffffff"/>
</svg>
