<svg xmlns="http://www.w3.org/2000/svg" xmlns:xlink="http://www.w3.org/1999/xlink" xmlns:inkscape="http://www.inkscape.org/namespaces/inkscape" version="1.1" width="612.283" height="260.787" viewBox="0 0 612.283 260.787">
<defs>
<path id="font_1_6" d="M.21598816 .5676117 .34700013 0H.49699403L.6259918 .5676117V0H.776001V.7285156H.5499878L.42199708 .14889527 .2899933 .7285156H.06599426V0H.21598816V.5676117Z"/>
<path id="font_1_24" d="M.30099488 .5488281C.13598633 .5488281 .034988405 .43981935 .034988405 .26268006 .034988405 .08454895 .13598633-.0234375 .3019867-.0234375 .46598817-.0234375 .56900027 .08555603 .56900027 .25868226 .56900027 .44181825 .46998597 .5488281 .30099488 .5488281M.3019867 .43582154C.3789978 .43582154 .42900086 .36676026 .42900086 .26068116 .42900086 .15960694 .3769989 .08955383 .3019867 .08955383 .22599793 .08955383 .1749878 .15960694 .1749878 .26268006 .1749878 .36576844 .22599793 .43582154 .3019867 .43582154Z"/>
<path id="font_1_23" d="M.06298828 .54003909V0H.20298767V.3240204C.20298767 .38783265 .24798584 .42982484 .31599427 .42982484 .37599183 .42982484 .4059906 .39683534 .4059906 .33285523V0H.54599V.36184693C.54599 .4808197 .47999574 .5488281 .36499024 .5488281 .2919922 .5488281 .24299622 .52182009 .20298767 .4618225V.54003909H.06298828Z"/>
<path id="font_1_14" d="M.40499879-.00044250489H.54499819V.7285156H.40499879V.46981813C.36999513 .52381899 .32299806 .5488281 .2559967 .5488281 .1269989 .5488281 .0289917 .42481996 .0289917 .26168824 .0289917 .18862915 .050994874 .11457825 .08699036 .062561038 .12399292 .010559082 .18998719-.0234375 .2559967-.0234375 .32299806-.0234375 .36999513 .0015563965 .40499879 .05455017V-.00044250489M.2869873 .43182374C.35798646 .43182374 .40499879 .36276246 .40499879 .25968934 .40499879 .16160584 .35699464 .093551639 .2869873 .093551639 .21699524 .093551639 .16899109 .16261292 .16899109 .26168824 .16899109 .36177064 .21699524 .43182374 .2869873 .43182374Z"/>
<path id="font_1_12" d="M.5239868 .016555787C.49899293 .03955078 .49198915 .05455017 .49198915 .08255005V.38278199C.49198915 .4928131 .4169922 .5488281 .2709961 .5488281 .125 .5488281 .04899597 .4868164 .039993287 .36175538H.1749878C.18199158 .4178009 .20498657 .43582154 .27398683 .43582154 .32798768 .43582154 .35499574 .4178009 .35499574 .3817749 .35499574 .36376954 .34599305 .3477478 .33099366 .3397522 .31199647 .32974244 .31199647 .32974244 .24299622 .3187256L.18699646 .30871583C.07998657 .29071046 .027999878 .235672 .027999878 .13859558 .027999878 .092559818 .040985109 .05455017 .06599426 .027557373 .09700012-.0044403078 .14399719-.0234375 .19198609-.0234375 .2519989-.0234375 .30699159 .0025482178 .35598756 .05355835 .35598756 .025558472 .35899354 .015548706 .37199403-.00044250489H.5239868V.016555787M.35499574 .21664429C.35499574 .1355896 .31498719 .08955383 .24398804 .08955383 .19699097 .08955383 .16799927 .11457825 .16799927 .15460205 .16799927 .19664002 .18998719 .21664429 .24798584 .22866822L.29599 .2376709C.33299256 .24467469 .33898927 .24667359 .35499574 .25468446V.21664429Z"/>
<path id="font_1_32" d="M.3939972 .54003909 .28199769 .1468811 .16299439 .54003909H.008987427L.20999146-.02218628V-.0231781-.026184082C.20999146-.07720947 .17199707-.11621094 .12298584-.11621094 .11199951-.11621094 .10398865-.115219119 .085998538-.11021423V-.21522522C.10699463-.21821594 .11898804-.21922302 .13598633-.21922302 .17098999-.21922302 .21299744-.21221924 .23699951-.20222473 .27598573-.18621826 .29299928-.16322327 .31599427-.09921265L.5379944 .54003909H.3939972Z"/>
<path id="font_1_10" d="M.3849945 .60350039H.59799197V.7285156H.01399231V.60350039H.23498535V0H.3849945V.60350039Z"/>
<path id="font_1_29" d="M.54100039-.00044250489V.54003909H.40098573V.20167542C.40098573 .13760376 .35598756 .09555054 .28799439 .09555054 .22799683 .09555054 .19799805 .127594 .19799805 .19265747V.54003909H.057998659V.16363526C.057998659 .044555665 .12399292-.0234375 .23899842-.0234375 .31199647-.0234375 .36099244 .0035552979 .40098573 .06355286V-.00044250489H.54100039Z"/>
<path id="font_1_15" d="M.5239868 .22558594C.5249939 .23757935 .5249939 .24258423 .5249939 .24957276 .5249939 .3035736 .5169983 .35365296 .5039978 .39172364 .46798707 .4898224 .3809967 .5488281 .27198792 .5488281 .116989139 .5488281 .021987915 .43681336 .021987915 .25558473 .021987915 .08255005 .115997318-.0234375 .2689972-.0234375 .3899994-.0234375 .48799134 .045547487 .5189972 .15156555H.3809967C.3639984 .108566287 .32499696 .08355713 .27398683 .08355713 .23399353 .08355713 .20199585 .10055542 .18199158 .13056946 .16899109 .15057373 .1639862 .1745758 .1619873 .22558594H.5239868M.1639862 .318573C.17298889 .40074159 .20799256 .44181825 .269989 .44181825 .30499269 .44181825 .33699037 .42478944 .35699464 .39672853 .36999513 .37669374 .37599183 .35565187 .3789978 .318573H.1639862Z"/>
<path id="font_1_27" d="M.5049896 .36576844C.5029907 .47982789 .4149933 .5488281 .269989 .5488281 .1329956 .5488281 .04798889 .47982789 .04798889 .36875917 .04798889 .33273316 .05899048 .30171205 .07798767 .28070069 .09700012 .26168824 .11399841 .25268556 .1659851 .235672L.33299256 .18362427C.36799623 .17262268 .37998963 .16160584 .37998963 .1395874 .37998963 .10656738 .34098817 .08654785 .27598573 .08654785 .23999024 .08654785 .21099854 .093566898 .19299317 .10557556 .17799378 .11657715 .17199707 .12757874 .1659851 .15660095H.0289917C.032989503 .03855896 .11999512-.0234375 .28399659-.0234375 .35899354-.0234375 .41600038-.007446289 .45599366 .024551392 .49598695 .056549074 .519989 .10656738 .519989 .15960694 .519989 .22966004 .4850006 .27468873 .4139862 .29571534L.23699951 .34675599C.19799805 .35876466 .18798828 .36676026 .18798828 .3887787 .18798828 .41880799 .21998596 .4388275 .2689972 .4388275 .33599855 .4388275 .36898805 .41479493 .36999513 .36576844H.5049896Z"/>
<path id="font_1_11" d="M.7299957 0 .9319916 .7285156H.772995L.6639862 .18188477 .54599 .7285156H.397995L.2849884 .18287659 .17199707 .7285156H.0129852299L.21899414 0H.35398866L.47299195 .5686035 .59498599 0H.7299957Z"/>
<path id="font_1_18" d="M.066986087 .7285156V0H.20698548V.3238678C.20698548 .38583375 .2519989 .42982484 .31498719 .42982484 .34498597 .42982484 .36898805 .41882325 .3849945 .39683534 .39698792 .3788452 .40098573 .3648529 .40098573 .3298645V0H.54100039V.36184693C.54100039 .42881776 .522995 .4768219 .48599244 .50782778 .45498658 .5338135 .4099884 .5488281 .36499024 .5488281 .29599 .5488281 .24598694 .520813 .20698548 .4618225V.7285156H.066986087Z"/>
<path id="font_1_26" d="M.06298828 .54003909V0H.20298767V.28701783C.20298767 .3688202 .24398804 .40982057 .32598878 .40982057 .34098817 .40982057 .35099793 .40881349 .36999513 .40582276V.54782107C.3619995 .5488281 .35699464 .5488281 .35299684 .5488281 .2889862 .5488281 .23298645 .5068207 .20298767 .43382264V.54003909H.06298828Z"/>
<path id="font_1_2" d="M.22399903 .31347657H.54299929V.43847657H.22399903V.60350039H.58599856V.7285156H.07398987V0H.22399903V.31347657Z"/>
<path id="font_1_19" d="M.20698548 .53956606H.066986087V0H.20698548V.53956606M.20698548 .7285156H.066986087V.60350039H.20698548V.7285156Z"/>
<path id="font_2_7" d="M.3909912 .37297059C.46398927 .41697694 .48799134 .4529724 .48799134 .51997378 .48799134 .63098147 .40098573 .7089844 .2749939 .7089844 .1499939 .7089844 .06199646 .63098147 .06199646 .51997378 .06199646 .4539795 .085998538 .417984 .1579895 .37297059 .07699585 .33398438 .036987306 .27488709 .036987306 .19676209 .036987306 .0665741 .1349945-.0234375 .2749939-.0234375 .4149933-.0234375 .5130005 .0665741 .5130005 .19577027 .5130005 .27488709 .47299195 .33398438 .3909912 .37297059M.2749939 .63098147C.34999085 .63098147 .397995 .5869751 .397995 .51797488 .397995 .4519806 .34899903 .40797425 .2749939 .40797425 .20098877 .40797425 .1519928 .4519806 .1519928 .51898196 .1519928 .5869751 .20098877 .63098147 .2749939 .63098147M.2749939 .33398438C.36299134 .33398438 .4229889 .27789308 .4229889 .19476319 .4229889 .11064148 .36299134 .05455017 .272995 .05455017 .18699646 .05455017 .1269989 .11164856 .1269989 .19476319 .1269989 .27789308 .18699646 .33398438 .2749939 .33398438Z"/>
<path id="font_2_8" d="M.21398926 .10398865H.10998535V0H.21398926V.10398865M.21398926 .52441409H.10998535V.42041017H.21398926V.52441409Z"/>
<path id="font_2_5" d="M.32699586 .17001343V0H.4149933V.17001343H.519989V.24902344H.4149933V.7090149H.34999085L.027999878 .26301576V.17001343H.32699586M.32699586 .24902344H.10499573L.32699586 .559021V.24902344Z"/>
<path id="font_2_6" d="M.47599793 .7089844H.10998535L.056991579 .32273866H.13798523C.1789856 .3717804 .21299744 .38879396 .2679901 .38879396 .36299134 .38879396 .4229889 .32374574 .4229889 .2186737 .4229889 .11659241 .3639984 .05455017 .2679901 .05455017 .19099427 .05455017 .14399719 .09358215 .12298584 .17364502H.034988405C.04699707 .115600589 .056991579 .08758545 .07798767 .061553956 .117996219 .0075531008 .18998719-.0234375 .269989-.0234375 .41299439-.0234375 .5130005 .080566409 .5130005 .23068238 .5130005 .37077333 .41999818 .46679688 .28399659 .46679688 .23399353 .46679688 .19400025 .4537964 .15299988 .42378236L.18099976 .62197878H.47599793V.7089844Z"/>
<path id="font_2_2" d="M.25898744 .5049896V0H.34700013V.70899966H.2889862C.2579956 .59999087 .23799134 .58499148 .101989749 .56799319V.5049896H.25898744Z"/>
<path id="font_2_1" d="M.2749939 .7089844C.20899964 .7089844 .14898682 .6799774 .11199951 .63098147 .06599426 .5689392 .042999269 .4738617 .042999269 .34277345 .042999269 .10359192 .12298584-.0234375 .2749939-.0234375 .4249878-.0234375 .5069885 .10359192 .5069885 .33676148 .5069885 .47486878 .4850006 .5669403 .43798829 .63098147 .40098573 .68096926 .34199525 .7089844 .2749939 .7089844M.2749939 .63098147C.36999513 .63098147 .4169922 .5349121 .4169922 .34477235 .4169922 .14363098 .37098695 .049560548 .272995 .049560548 .17999268 .049560548 .1329956 .14762879 .1329956 .34176637 .1329956 .53590396 .17999268 .63098147 .2749939 .63098147Z"/>
<path id="font_2_3" d="M.5059967 .08699036H.1329956C.14199829 .14498902 .17399597 .18199158 .26098634 .23298645L.36099244 .2869873C.45999146 .34098817 .5109863 .4139862 .5109863 .50097659 .5109863 .5599823 .4869995 .614975 .44499208 .65296939 .40299989 .690979 .35099793 .7089844 .28399659 .7089844 .19400025 .7089844 .1269989 .67697146 .08799744 .6169739 .06298828 .5789795 .051986696 .53497317 .049987794 .46298219H.13798523C.14099121 .5109863 .14698792 .539978 .15899658 .562973 .18199158 .6059723 .22799683 .63197329 .2809906 .63197329 .36099244 .63197329 .42099 .5749817 .42099 .49897767 .42099 .4429779 .3880005 .394989 .32499696 .35897828L.23298645 .30699159C.084991458 .22299195 .041992189 .1559906 .033996583 0H.5059967V.08699036Z"/>
<path id="font_2_4" d="M.22099304 .3247528H.23199463L.2689972 .3257599C.3659973 .3257599 .41600038 .28172303 .41600038 .19665528 .41600038 .10758972 .36099244 .05455017 .2689972 .05455017 .17298889 .05455017 .12599182 .10258484 .11999512 .20567322H.03199768C.035995485 .1486206 .04598999 .11160278 .06298828 .079574588 .09899902 .011550903 .16899109-.0234375 .2659912-.0234375 .4119873-.0234375 .5059967 .063568118 .5059967 .19766236 .5059967 .28771974 .47099305 .33776856 .38598634 .36679078 .45199586 .392807 .4850006 .44284059 .4850006 .5138855 .4850006 .63597109 .4039917 .7089844 .2689972 .7089844 .12599182 .7089844 .049987794 .63098147 .04699707 .47987367H.1349945C.13598633 .52290347 .13999939 .5469208 .15098572 .56892397 .17098999 .60795596 .21499634 .63197329 .269989 .63197329 .34799195 .63197329 .394989 .5859375 .394989 .5108948 .394989 .46084596 .3769989 .4308319 .33799745 .41482545 .31399537 .40481568 .2829895 .4008026 .22099304 .3998108V.3247528Z"/>
<path id="font_1_5" d="M.22999573 .7285156H.07998657V0H.57899478V.125H.22999573V.7285156Z"/>
<path id="font_1_13" d="M.5219879 .33773805C.5119934 .46981813 .42399598 .5488281 .2889862 .5488281 .12799073 .5488281 .033996583 .44282533 .033996583 .25868226 .033996583 .08055115 .1269989-.0234375 .2869873-.0234375 .41799928-.0234375 .5089874 .057556154 .5219879 .18663025H.3880005C.36999513 .11657715 .34199525 .08955383 .28799439 .08955383 .21699524 .08955383 .17399597 .15361023 .17399597 .25868226 .17399597 .3097229 .18399048 .35775758 .20098877 .38978578 .21699524 .4197998 .24798584 .43582154 .28799439 .43582154 .34498597 .43582154 .37199403 .40879823 .3880005 .33773805H.5219879Z"/>
<path id="font_1_28" d="M.30099488 .52853396H.22299195V.6735382H.08299255V.52853396H.01399231V.43554688H.08299255V.1035614C.08299255 .018554688 .12799073-.0234375 .21998596-.0234375 .25099183-.0234375 .27598573-.020446778 .30099488-.012451172V.08555603C.2869873 .08355713 .2789917 .08255005 .2689972 .08255005 .23199463 .08255005 .22299195 .093551639 .22299195 .14155579V.43554688H.30099488V.52853396Z"/>
<path id="font_1_20" d="M.19898987 .32977296V.7285156H.05899048V0H.19898987V.17687989L.25498963 .23783875 .38398744 0H.5479889L.35099793 .33576966 .5349884 .5396271H.37599183L.19898987 .32977296Z"/>
<path id="font_1_25" d="M.19799805 .53982546H.057998659V-.21824646H.19799805V.063583377C.23199463 .0035858155 .27999879-.024414063 .34799195-.024414063 .47799684-.024414063 .57398989 .097579959 .57398989 .2617035 .57398989 .3377533 .5519867 .4138031 .5159912 .4638214 .47999574 .5148163 .41299439 .5488281 .34799195 .5488281 .27999879 .5488281 .23199463 .51982119 .19799805 .4598236V.53982546M.31599427 .43182374C.3869934 .43182374 .43399049 .3627777 .43399049 .2597046 .43399049 .1616211 .3849945 .09257507 .31599427 .09257507 .24598694 .09257507 .19799805 .16062927 .19799805 .2617035 .19799805 .3627777 .24598694 .43182374 .31599427 .43182374Z"/>
<path id="font_1_3" d="M.71099856 .39160157H.4189911V.26660157H.58499148C.58099368 .22558594 .57099917 .20057678 .548996 .1745758 .5130005 .1305542 .45799256 .10455322 .3999939 .10455322 .2789917 .10455322 .19198609 .21058655 .19198609 .3605957 .19198609 .51794436 .2689972 .61320498 .3959961 .61320498 .44799806 .61320498 .49198915 .5981598 .5249939 .56907656 .54599 .5510254 .5569916 .5339813 .56999209 .49588014H.71099856C.69299319 .6462097 .57099917 .74121096 .394989 .74121096 .18499756 .74121096 .041992189 .58613589 .041992189 .3585968 .041992189 .13755799 .18598938-.0234375 .3829956-.0234375 .48098756-.0234375 .5469971 .011550903 .6029968 .093551639L.62098696-.0024414063H.71099856V.39160157Z"/>
<path id="font_1_17" d="M.4079895 .53982546V.45681764C.3659973 .520813 .31999208 .5488281 .2579956 .5488281 .12998963 .5488281 .033996583 .42381288 .033996583 .25668336 .033996583 .08856201 .12199402-.0234375 .25498963-.0234375 .31799317-.0234375 .35598756-.0044403078 .4079895 .05455017V-.018447876C.4079895-.083618167 .35899354-.12875366 .2889862-.12875366 .23599243-.12875366 .20098877-.10668945 .18998719-.06556702H.04499817C.04598999-.10769653 .06199646-.13676453 .09799194-.1667633 .14099121-.20175171 .20098877-.21875 .28399659-.21875 .44699098-.21875 .54100039-.14575196 .54100039-.018447876V.53982546H.4079895M.28799439 .43182374C.35798646 .43182374 .4099884 .35876466 .4099884 .25868226 .4099884 .16061402 .35899354 .093551639 .28599549 .093551639 .21998596 .093551639 .17399597 .16061402 .17399597 .25868226 .17399597 .36076356 .21998596 .43182374 .28799439 .43182374Z"/>
<path id="font_1_22" d="M.05999756 .54003909V0H.19999695V.3240204C.19999695 .38983155 .23599243 .42982484 .29599 .42982484 .34298707 .42982484 .37199403 .40283204 .37199403 .35984803V0H.5119934V.3238678C.5119934 .38983155 .5479889 .42982484 .60798647 .42982484 .6549988 .42982484 .6839905 .40283204 .6839905 .35984803V0H.82398989V.38183595C.82398989 .4868164 .7599945 .5488281 .6519928 .5488281 .58399966 .5488281 .5359955 .52482607 .49398805 .4688263 .46798707 .51982119 .4139862 .5488281 .34700013 .5488281 .2849884 .5490265 .24499512 .5280304 .19898987 .47303773V.54003909H.05999756Z"/>
<path id="font_1_9" d="M.22999573 .28904725H.4019928C.46699525 .28904725 .49499513 .26304627 .49499513 .20202637 .49499513 .19602967 .49499513 .18603516 .49398805 .17301941 .49299623 .15402222 .49299623 .13601685 .49299623 .12501526 .49299623 .057006837 .49699403 .034988405 .5159912 0H.6769867V.026992798C.6539917 .039993287 .644989 .055007936 .644989 .087005618 .6409912 .30204774 .6369934 .3120575 .5439911 .35205079 .6259918 .38404847 .6669922 .4429779 .6669922 .531723 .6669922 .58955386 .6469879 .64250186 .6119995 .6785126 .57899478 .71250918 .5329895 .7285156 .47099305 .7285156H.07998657V0H.22999573V.28904725M.22999573 .4140625V.60350039H.41099549C.45399476 .60350039 .47200013 .5995178 .48999024 .5845642 .5079956 .5696106 .5169983 .54467776 .5169983 .5107727 .5169983 .47587586 .5069885 .44795228 .48999024 .43299867 .47399903 .41903688 .45399476 .4140625 .41099549 .4140625H.22999573Z"/>
<path id="font_1_8" d="M.6649933 .10255432C.71398928 .16262818 .7449951 .26275636 .7449951 .36088563 .7449951 .46801759 .70700076 .57115176 .6429901 .64019778 .5799866 .7082062 .49798585 .74121096 .3939972 .74121096 .2899933 .74121096 .20799256 .7082062 .14498902 .64019778 .08099365 .57115176 .042999269 .46801759 .042999269 .35887147 .042999269 .2497406 .08099365 .14660645 .14498902 .077560428 .20799256 .009552002 .29100038-.0234375 .3939972-.0234375 .46899415-.0234375 .5249939-.00843811 .58299258 .026550293L.6689911-.05444336 .7449951 .026550293 .6649933 .10255432M.47999574 .277771 .4039917 .19667053 .48098756 .12358093C.45799256 .11155701 .4249878 .10455322 .3929901 .10455322 .272995 .10455322 .19299317 .20568848 .19299317 .35887147 .19299317 .5120697 .272995 .61320498 .3939972 .61320498 .5159912 .61320498 .59498599 .5130768 .59498599 .35787965 .59498599 .2978058 .58399966 .24372864 .56199648 .19967652L.47999574 .277771Z"/>
<path id="font_1_4" d="M.5069885 .33103944V0H.6569977V.7285156H.5059967V.4560547H.21798706V.7285156H.067993167V0H.21798706V.33103944H.5069885Z"/>
<path id="font_1_21" d="M.20698548 .7285156H.066986087V0H.20698548V.7285156Z"/>
<path id="font_1_16" d="M.31298829 .52853396H.22999573V.5815277C.22999573 .6095123 .24198914 .62350466 .2679901 .62350466 .27999879 .62350466 .29599 .6225128 .30799867 .6205139V.72550967C.28199769 .72750857 .24699402 .7285156 .22799683 .7285156 .1349945 .7285156 .08999634 .6845093 .08999634 .5935211V.52853396H.01399231V.43554688H.08999634V0H.22999573V.43554688H.31298829V.52853396Z"/>
<path id="font_1_31" d="M.35499574 .27201844 .5309906 .54003909H.36299134L.27598573 .37701417 .18798828 .54003909H.019989014L.19599915 .27201844 .015991211 0H.18399048L.27598573 .16799927 .36698915 0H.5349884L.35499574 .27201844Z"/>
<path id="font_1_30" d="M.61299136 0 .7659912 .54003909H.62098696L.5389862 .16200257 .45799256 .54003909H.31799317L.23599243 .16200257 .1499939 .54003909H.004989624L.15699768 0H.30099488L.3869934 .38102723 .46798707 0H.61299136Z"/>
<path id="font_1_36" d="M.2630005 .1459961H.11299133V0H.2630005V.1459961M.2630005 .52001956H.11299133V.37402345H.2630005V.52001956Z"/>
<path id="font_1_40" d="M.08198547 0H.4099884C.49398805 0 .5499878 .015991211 .59399417 .052993776 .6380005 .08999634 .66600039 .1519165 .66600039 .20976258 .66600039 .28155519 .6269989 .33847047 .54499819 .3864746 .61698916 .4324646 .644989 .47447206 .644989 .536499 .644989 .5865021 .6199951 .6395111 .57899478 .6755066 .5359955 .71250918 .4850006 .7285156 .40699769 .7285156H.08198547V0M.23199463 .60350039H.394989C.46398927 .60350039 .5009918 .57450869 .5009918 .52049258 .5009918 .46748353 .46398927 .43847657 .394989 .43847657H.23199463V.60350039M.23199463 .31347657H.41099549C.48399354 .31347657 .5219879 .28056336 .5219879 .21873474 .5219879 .15789795 .48399354 .125 .41099549 .125H.23199463V.31347657Z"/>
<path id="font_1_7" d="M.22599793 .25975038H.41299439C.5469971 .25975038 .6329956 .3547516 .6329956 .5026245 .6329956 .6485138 .5499878 .7285156 .397995 .7285156H.07598877V0H.22599793V.25975038M.22599793 .38476563V.60350039H.3659973C.44599916 .60350039 .48298646 .5685425 .48298646 .49363709 .48298646 .4197235 .44599916 .38476563 .3659973 .38476563H.22599793Z"/>
<path id="font_1_1" d="M.07699585 0H.3619995C.47299195 0 .54299929 .025985718 .59199526 .084991458 .6499939 .15296936 .68099978 .25186158 .68099978 .3647461 .68099978 .4766388 .6499939 .575531 .59199526 .64450076 .54299929 .70350649 .47399903 .7285156 .3619995 .7285156H.07699585V0M.22698975 .125V.60350039H.3619995C.47499085 .60350039 .5309906 .5245819 .5309906 .36375428 .5309906 .20391846 .47499085 .125 .3619995 .125H.22698975Z"/>
<path id="font_1_38" d="M.20298767 .7285156C.08799744 .5555115 .039993287 .417511 .039993287 .2645111 .039993287 .11050415 .08799744-.027496338 .20298767-.20050049H.30299378C.19699097 .005508423 .16299439 .117507938 .16299439 .2645111 .16299439 .4105072 .19699097 .5245056 .30299378 .7285156H.20298767Z"/>
<path id="font_1_33" d="M.23799134 .4889984V0H.37799073V.70899966H.2849884C.2630005 .625 .18998719 .58200076 .067993167 .58200076V.4889984H.23799134Z"/>
<path id="font_1_34" d="M.5119934 .125H.21199036C.22999573 .16296387 .2519989 .18295288 .35598756 .25889588 .47898866 .34881593 .5149994 .40278626 .5149994 .498703 .5149994 .6356201 .42099 .7236328 .27198792 .7236328 .125 .7236328 .038986207 .6366272 .038986207 .48672486 .038986207 .48072816 .038986207 .47273255 .039993287 .46173097H.17399597V.48472596C.17399597 .56365969 .21099854 .60961917 .2749939 .60961917 .33699037 .60961917 .375 .5666504 .375 .49571229 .375 .4177704 .34999085 .38679505 .19400025 .2758789 .07398987 .19393921 .036987306 .13098145 .02999878 0H.5119934V.125Z"/>
<path id="font_1_37" d="M.5569916 .3110199H-.009002686V.20703125H.5569916V.3110199Z"/>
<path id="font_1_35" d="M.4889984 .7089844H.10998535L.04699707 .31404115H.17298889C.18798828 .3491211 .21998596 .36816407 .2630005 .36816407 .33399964 .36816407 .3769989 .31704713 .3769989 .23085022 .3769989 .14767456 .33299256 .09655762 .2630005 .09655762 .20199585 .09655762 .16799927 .12762451 .16499329 .18475342H.026992798C.0289917 .060562135 .12298584-.0234375 .26098634-.0234375 .41299439-.0234375 .5169983 .08055115 .5169983 .2338562 .5169983 .3791504 .4269867 .4791565 .29599 .4791565 .24899292 .4791565 .21398926 .4671631 .17298889 .43615724L.19599915 .5839691H.4889984V.7089844Z"/>
<path id="font_1_39" d="M.12199402-.20050049C.23699951-.027496338 .2849884 .11050415 .2849884 .26350404 .2849884 .417511 .23699951 .5555115 .12199402 .7285156H.021987915C.12799073 .5225067 .1619873 .4105072 .1619873 .26350404 .1619873 .117507938 .12799073 .0035095216 .021987915-.20050049H.12199402Z"/>
</defs>
<use data-text="M" xlink:href="#font_1_6" transform="matrix(11.9552,0,0,-11.9552,65.41,17.194993)"/>
<use data-text="o" xlink:href="#font_1_24" transform="matrix(11.9552,0,0,-11.9552,75.36868,17.194993)"/>
<use data-text="n" xlink:href="#font_1_23" transform="matrix(11.9552,0,0,-11.9552,82.67331,17.194993)"/>
<use data-text="d" xlink:href="#font_1_14" transform="matrix(11.9552,0,0,-11.9552,89.977939,17.194993)"/>
<use data-text="a" xlink:href="#font_1_12" transform="matrix(11.9552,0,0,-11.9552,97.28256,17.194993)"/>
<use data-text="y" xlink:href="#font_1_32" transform="matrix(11.9552,0,0,-11.9552,103.69055,17.194993)"/>
<use data-text="T" xlink:href="#font_1_10" transform="matrix(11.9552,0,0,-11.9552,177.666,17.194993)"/>
<use data-text="u" xlink:href="#font_1_29" transform="matrix(11.9552,0,0,-11.9552,183.89466,17.194993)"/>
<use data-text="e" xlink:href="#font_1_15" transform="matrix(11.9552,0,0,-11.9552,191.19928,17.194993)"/>
<use data-text="s" xlink:href="#font_1_27" transform="matrix(11.9552,0,0,-11.9552,197.84638,17.194993)"/>
<use data-text="d" xlink:href="#font_1_14" transform="matrix(11.9552,0,0,-11.9552,204.49347,17.194993)"/>
<use data-text="a" xlink:href="#font_1_12" transform="matrix(11.9552,0,0,-11.9552,211.7981,17.194993)"/>
<use data-text="y" xlink:href="#font_1_32" transform="matrix(11.9552,0,0,-11.9552,218.20609,17.194993)"/>
<use data-text="W" xlink:href="#font_1_11" transform="matrix(11.9552,0,0,-11.9552,281.75703,17.194993)"/>
<use data-text="e" xlink:href="#font_1_15" transform="matrix(11.9552,0,0,-11.9552,292.6243,17.194993)"/>
<use data-text="d" xlink:href="#font_1_14" transform="matrix(11.9552,0,0,-11.9552,299.2714,17.194993)"/>
<use data-text="n" xlink:href="#font_1_23" transform="matrix(11.9552,0,0,-11.9552,306.57603,17.194993)"/>
<use data-text="e" xlink:href="#font_1_15" transform="matrix(11.9552,0,0,-11.9552,313.88066,17.194993)"/>
<use data-text="s" xlink:href="#font_1_27" transform="matrix(11.9552,0,0,-11.9552,320.52775,17.194993)"/>
<use data-text="d" xlink:href="#font_1_14" transform="matrix(11.9552,0,0,-11.9552,327.17485,17.194993)"/>
<use data-text="a" xlink:href="#font_1_12" transform="matrix(11.9552,0,0,-11.9552,334.47947,17.194993)"/>
<use data-text="y" xlink:href="#font_1_32" transform="matrix(11.9552,0,0,-11.9552,340.88746,17.194993)"/>
<use data-text="T" xlink:href="#font_1_10" transform="matrix(11.9552,0,0,-11.9552,401.336,17.194993)"/>
<use data-text="h" xlink:href="#font_1_18" transform="matrix(11.9552,0,0,-11.9552,408.64064,17.194993)"/>
<use data-text="u" xlink:href="#font_1_29" transform="matrix(11.9552,0,0,-11.9552,415.94526,17.194993)"/>
<use data-text="r" xlink:href="#font_1_26" transform="matrix(11.9552,0,0,-11.9552,423.24989,17.194993)"/>
<use data-text="s" xlink:href="#font_1_27" transform="matrix(11.9552,0,0,-11.9552,427.72114,17.194993)"/>
<use data-text="d" xlink:href="#font_1_14" transform="matrix(11.9552,0,0,-11.9552,434.36824,17.194993)"/>
<use data-text="a" xlink:href="#font_1_12" transform="matrix(11.9552,0,0,-11.9552,441.67286,17.194993)"/>
<use data-text="y" xlink:href="#font_1_32" transform="matrix(11.9552,0,0,-11.9552,448.08085,17.194993)"/>
<use data-text="F" xlink:href="#font_1_2" transform="matrix(11.9552,0,0,-11.9552,523.598,17.274994)"/>
<use data-text="r" xlink:href="#font_1_26" transform="matrix(11.9552,0,0,-11.9552,530.90267,17.274994)"/>
<use data-text="i" xlink:href="#font_1_19" transform="matrix(11.9552,0,0,-11.9552,535.5532,17.274994)"/>
<use data-text="d" xlink:href="#font_1_14" transform="matrix(11.9552,0,0,-11.9552,538.8768,17.274994)"/>
<use data-text="a" xlink:href="#font_1_12" transform="matrix(11.9552,0,0,-11.9552,546.1814,17.274994)"/>
<use data-text="y" xlink:href="#font_1_32" transform="matrix(11.9552,0,0,-11.9552,552.5894,17.274994)"/>
<use data-text="8" xlink:href="#font_2_7" transform="matrix(9.9626,0,0,-9.9626,7.313999,31.77298)"/>
<use data-text=":" xlink:href="#font_2_8" transform="matrix(9.9626,0,0,-9.9626,12.853206,31.77298)"/>
<use data-text="4" xlink:href="#font_2_5" transform="matrix(9.9626,0,0,-9.9626,15.622808,31.77298)"/>
<use data-text="5" xlink:href="#font_2_6" transform="matrix(9.9626,0,0,-9.9626,21.162014,31.77298)"/>
<use data-text="1" xlink:href="#font_2_2" transform="matrix(9.9626,0,0,-9.9626,4.545,88.46599)"/>
<use data-text="0" xlink:href="#font_2_1" transform="matrix(9.9626,0,0,-9.9626,10.084206,88.46599)"/>
<use data-text=":" xlink:href="#font_2_8" transform="matrix(9.9626,0,0,-9.9626,15.623411,88.46599)"/>
<use data-text="4" xlink:href="#font_2_5" transform="matrix(9.9626,0,0,-9.9626,18.393015,88.46599)"/>
<use data-text="5" xlink:href="#font_2_6" transform="matrix(9.9626,0,0,-9.9626,23.93222,88.46599)"/>
<use data-text="1" xlink:href="#font_2_2" transform="matrix(9.9626,0,0,-9.9626,4.545,145.159)"/>
<use data-text="2" xlink:href="#font_2_3" transform="matrix(9.9626,0,0,-9.9626,10.084206,145.159)"/>
<use data-text=":" xlink:href="#font_2_8" transform="matrix(9.9626,0,0,-9.9626,15.623411,145.159)"/>
<use data-text="4" xlink:href="#font_2_5" transform="matrix(9.9626,0,0,-9.9626,18.393015,145.159)"/>
<use data-text="5" xlink:href="#font_2_6" transform="matrix(9.9626,0,0,-9.9626,23.93222,145.159)"/>
<use data-text="1" xlink:href="#font_2_2" transform="matrix(9.9626,0,0,-9.9626,4.545,173.50598)"/>
<use data-text="3" xlink:href="#font_2_4" transform="matrix(9.9626,0,0,-9.9626,10.084206,173.50598)"/>
<use data-text=":" xlink:href="#font_2_8" transform="matrix(9.9626,0,0,-9.9626,15.623411,173.50598)"/>
<use data-text="4" xlink:href="#font_2_5" transform="matrix(9.9626,0,0,-9.9626,18.393015,173.50598)"/>
<use data-text="5" xlink:href="#font_2_6" transform="matrix(9.9626,0,0,-9.9626,23.93222,173.50598)"/>
<use data-text="1" xlink:href="#font_2_2" transform="matrix(9.9626,0,0,-9.9626,4.545,230.19799)"/>
<use data-text="5" xlink:href="#font_2_6" transform="matrix(9.9626,0,0,-9.9626,10.084206,230.19799)"/>
<use data-text=":" xlink:href="#font_2_8" transform="matrix(9.9626,0,0,-9.9626,15.623411,230.19799)"/>
<use data-text="4" xlink:href="#font_2_5" transform="matrix(9.9626,0,0,-9.9626,18.393015,230.19799)"/>
<use data-text="5" xlink:href="#font_2_6" transform="matrix(9.9626,0,0,-9.9626,23.93222,230.19799)"/>
<path transform="matrix(1,0,0,-1,31.181,28.345993)" stroke-width=".3985" stroke-linecap="butt" stroke-miterlimit="10" stroke-linejoin="miter" fill="none" stroke="#d9d9d9" d="M0 0V-226.77448"/>
<path transform="matrix(1,0,0,-1,31.181,28.345993)" stroke-width=".3985" stroke-linecap="butt" stroke-miterlimit="10" stroke-linejoin="miter" fill="none" stroke="#d9d9d9" d="M113.38724 0V-226.77448"/>
<path transform="matrix(1,0,0,-1,31.181,28.345993)" stroke-width=".3985" stroke-linecap="butt" stroke-miterlimit="10" stroke-linejoin="miter" fill="none" stroke="#d9d9d9" d="M226.77448 0V-226.77448"/>
<path transform="matrix(1,0,0,-1,31.181,28.345993)" stroke-width=".3985" stroke-linecap="butt" stroke-miterlimit="10" stroke-linejoin="miter" fill="none" stroke="#d9d9d9" d="M340.1617 0V-226.77448"/>
<path transform="matrix(1,0,0,-1,31.181,28.345993)" stroke-width=".3985" stroke-linecap="butt" stroke-miterlimit="10" stroke-linejoin="miter" fill="none" stroke="#d9d9d9" d="M453.54896 0V-226.77448"/>
<path transform="matrix(1,0,0,-1,31.181,28.345993)" stroke-width=".3985" stroke-linecap="butt" stroke-miterlimit="10" stroke-linejoin="miter" fill="none" stroke="#d9d9d9" d="M566.9362 0V-226.77448"/>
<path transform="matrix(1,0,0,-1,31.181,28.345993)" stroke-width=".3985" stroke-linecap="butt" stroke-miterlimit="10" stroke-linejoin="miter" fill="none" stroke="#d9d9d9" d="M0 0H566.9362"/>
<path transform="matrix(1,0,0,-1,31.181,28.345993)" stroke-width=".3985" stroke-linecap="butt" stroke-miterlimit="10" stroke-linejoin="miter" fill="none" stroke="#d9d9d9" d="M0-56.69362H566.9362"/>
<path transform="matrix(1,0,0,-1,31.181,28.345993)" stroke-width=".3985" stroke-linecap="butt" stroke-miterlimit="10" stroke-linejoin="miter" fill="none" stroke="#d9d9d9" d="M0-113.38724H566.9362"/>
<path transform="matrix(1,0,0,-1,31.181,28.345993)" stroke-width=".3985" stroke-linecap="butt" stroke-miterlimit="10" stroke-linejoin="miter" fill="none" stroke="#d9d9d9" d="M0-141.73404H566.9362"/>
<path transform="matrix(1,0,0,-1,31.181,28.345993)" stroke-width=".3985" stroke-linecap="butt" stroke-miterlimit="10" stroke-linejoin="miter" fill="none" stroke="#d9d9d9" d="M0-198.42766H566.9362"/>
<path transform="matrix(1,0,0,-1,31.181,28.345993)" d="M2.83484-64.66383V-105.41702C2.83484-109.81891 6.40317-113.38724 10.80505-113.38724H102.58215C106.98404-113.38724 110.55237-109.81891 110.55237-105.41702V-64.66383C110.55237-60.26195 106.98404-56.69362 102.58215-56.69362H10.80505C6.40317-56.69362 2.83484-60.26195 2.83484-64.66383ZM110.55237-113.38724" fill="#009b77"/>
<use data-text="L" xlink:href="#font_1_5" transform="matrix(10.9091,0,0,-10.9091,68.17299,117.23599)" fill="#ffffff"/>
<use data-text="e" xlink:href="#font_1_15" transform="matrix(10.9091,0,0,-10.9091,74.838459,117.23599)" fill="#ffffff"/>
<use data-text="c" xlink:href="#font_1_13" transform="matrix(10.9091,0,0,-10.9091,80.903919,117.23599)" fill="#ffffff"/>
<use data-text="t" xlink:href="#font_1_28" transform="matrix(10.9091,0,0,-10.9091,86.969379,117.23599)" fill="#ffffff"/>
<use data-text="u" xlink:href="#font_1_29" transform="matrix(10.9091,0,0,-10.9091,90.6021,117.23599)" fill="#ffffff"/>
<use data-text="r" xlink:href="#font_1_26" transform="matrix(10.9091,0,0,-10.9091,97.26756,117.23599)" fill="#ffffff"/>
<use data-text="e" xlink:href="#font_1_15" transform="matrix(10.9091,0,0,-10.9091,101.5112,117.23599)" fill="#ffffff"/>
<path transform="matrix(1,0,0,-1,31.181,28.345993)" d="M229.60932-64.66383V-105.41702C229.60932-109.81891 233.17766-113.38724 237.57953-113.38724H329.35664C333.7585-113.38724 337.32685-109.81891 337.32685-105.41702V-64.66383C337.32685-60.26195 333.7585-56.69362 329.35664-56.69362H237.57953C233.17766-56.69362 229.60932-60.26195 229.60932-64.66383ZM337.32685-113.38724" fill="#ed6842"/>
<use data-text="W" xlink:href="#font_1_11" transform="matrix(10.9091,0,0,-10.9091,288.306,116.14299)" fill="#ffffff"/>
<use data-text="o" xlink:href="#font_1_24" transform="matrix(10.9091,0,0,-10.9091,297.94966,116.14299)" fill="#ffffff"/>
<use data-text="r" xlink:href="#font_1_26" transform="matrix(10.9091,0,0,-10.9091,304.6151,116.14299)" fill="#ffffff"/>
<use data-text="k" xlink:href="#font_1_20" transform="matrix(10.9091,0,0,-10.9091,308.85877,116.14299)" fill="#ffffff"/>
<use data-text="s" xlink:href="#font_1_27" transform="matrix(10.9091,0,0,-10.9091,314.92424,116.14299)" fill="#ffffff"/>
<use data-text="h" xlink:href="#font_1_18" transform="matrix(10.9091,0,0,-10.9091,320.9897,116.14299)" fill="#ffffff"/>
<use data-text="o" xlink:href="#font_1_24" transform="matrix(10.9091,0,0,-10.9091,327.65516,116.14299)" fill="#ffffff"/>
<use data-text="p" xlink:href="#font_1_25" transform="matrix(10.9091,0,0,-10.9091,334.32063,116.14299)" fill="#ffffff"/>
<path transform="matrix(1,0,0,-1,31.181,28.345993)" d="M456.3838-7.97021V-105.41702C456.3838-109.81891 459.95213-113.38724 464.35404-113.38724H556.1311C560.533-113.38724 564.1013-109.81891 564.1013-105.41702V-7.97021C564.1013-3.56833 560.533 0 556.1311 0H464.35404C459.95213 0 456.3838-3.56833 456.3838-7.97021ZM564.1013-113.38724" fill="#ed6842"/>
<use data-text="G" xlink:href="#font_1_3" transform="matrix(10.9091,0,0,-10.9091,525.163,49.972993)" fill="#ffffff"/>
<use data-text="r" xlink:href="#font_1_26" transform="matrix(10.9091,0,0,-10.9091,533.6503,49.972993)" fill="#ffffff"/>
<use data-text="o" xlink:href="#font_1_24" transform="matrix(10.9091,0,0,-10.9091,537.6758,49.972993)" fill="#ffffff"/>
<use data-text="u" xlink:href="#font_1_29" transform="matrix(10.9091,0,0,-10.9091,544.34127,49.972993)" fill="#ffffff"/>
<use data-text="p" xlink:href="#font_1_25" transform="matrix(10.9091,0,0,-10.9091,551.0067,49.972993)" fill="#ffffff"/>
<use data-text="a" xlink:href="#font_1_12" transform="matrix(10.9091,0,0,-10.9091,511.10704,63.521989)" fill="#ffffff"/>
<use data-text="s" xlink:href="#font_1_27" transform="matrix(10.9091,0,0,-10.9091,517.1725,63.521989)" fill="#ffffff"/>
<use data-text="s" xlink:href="#font_1_27" transform="matrix(10.9091,0,0,-10.9091,523.2379,63.521989)" fill="#ffffff"/>
<use data-text="i" xlink:href="#font_1_19" transform="matrix(10.9091,0,0,-10.9091,529.30337,63.521989)" fill="#ffffff"/>
<use data-text="g" xlink:href="#font_1_17" transform="matrix(10.9091,0,0,-10.9091,532.33609,63.521989)" fill="#ffffff"/>
<use data-text="n" xlink:href="#font_1_23" transform="matrix(10.9091,0,0,-10.9091,539.0015,63.521989)" fill="#ffffff"/>
<use data-text="m" xlink:href="#font_1_22" transform="matrix(10.9091,0,0,-10.9091,545.667,63.521989)" fill="#ffffff"/>
<use data-text="e" xlink:href="#font_1_15" transform="matrix(10.9091,0,0,-10.9091,555.3652,63.521989)" fill="#ffffff"/>
<use data-text="n" xlink:href="#font_1_23" transform="matrix(10.9091,0,0,-10.9091,561.4306,63.521989)" fill="#ffffff"/>
<use data-text="t" xlink:href="#font_1_28" transform="matrix(10.9091,0,0,-10.9091,568.09609,63.521989)" fill="#ffffff"/>
<use data-text="R" xlink:href="#font_1_9" transform="matrix(10.9091,0,0,-10.9091,512.218,114.53099)" fill="#ffffff"/>
<use data-text="e" xlink:href="#font_1_15" transform="matrix(10.9091,0,0,-10.9091,520.09439,114.53099)" fill="#ffffff"/>
<use data-text="p" xlink:href="#font_1_25" transform="matrix(10.9091,0,0,-10.9091,526.1598,114.53099)" fill="#ffffff"/>
<use data-text="o" xlink:href="#font_1_24" transform="matrix(10.9091,0,0,-10.9091,532.82528,114.53099)" fill="#ffffff"/>
<use data-text="r" xlink:href="#font_1_26" transform="matrix(10.9091,0,0,-10.9091,539.4907,114.53099)" fill="#ffffff"/>
<use data-text="t" xlink:href="#font_1_28" transform="matrix(10.9091,0,0,-10.9091,543.9526,114.53099)" fill="#ffffff"/>
<use data-text="d" xlink:href="#font_1_14" transform="matrix(10.9091,0,0,-10.9091,551.2181,114.53099)" fill="#ffffff"/>
<use data-text="u" xlink:href="#font_1_29" transform="matrix(10.9091,0,0,-10.9091,557.88357,114.53099)" fill="#ffffff"/>
<use data-text="e" xlink:href="#font_1_15" transform="matrix(10.9091,0,0,-10.9091,564.549,114.53099)" fill="#ffffff"/>
<use data-text="a" xlink:href="#font_1_12" transform="matrix(10.9091,0,0,-10.9091,525.052,128.07999)" fill="#ffffff"/>
<use data-text="t" xlink:href="#font_1_28" transform="matrix(10.9091,0,0,-10.9091,531.11746,128.07999)" fill="#ffffff"/>
<use data-text="e" xlink:href="#font_1_15" transform="matrix(10.9091,0,0,-10.9091,538.38296,128.07999)" fill="#ffffff"/>
<use data-text="n" xlink:href="#font_1_23" transform="matrix(10.9091,0,0,-10.9091,544.44839,128.07999)" fill="#ffffff"/>
<use data-text="d" xlink:href="#font_1_14" transform="matrix(10.9091,0,0,-10.9091,551.11386,128.07999)" fill="#ffffff"/>
<path transform="matrix(1,0,0,-1,31.181,28.345993)" d="M116.22208-64.66383V-105.41702C116.22208-109.81891 119.7904-113.38724 124.19229-113.38724H215.96939C220.37128-113.38724 223.9396-109.81891 223.9396-105.41702V-64.66383C223.9396-60.26195 220.37128-56.69362 215.96939-56.69362H124.19229C119.7904-56.69362 116.22208-60.26195 116.22208-64.66383ZM223.9396-113.38724" fill="#ffffff"/>
<path transform="matrix(1,0,0,-1,31.181,28.345993)" stroke-width=".79701" stroke-linecap="butt" stroke-miterlimit="10" stroke-linejoin="miter" fill="none" stroke="#00a6d6" d="M116.22208-64.66383V-105.41702C116.22208-109.81891 119.7904-113.38724 124.19229-113.38724H215.96939C220.37128-113.38724 223.9396-109.81891 223.9396-105.41702V-64.66383C223.9396-60.26195 220.37128-56.69362 215.96939-56.69362H124.19229C119.7904-56.69362 116.22208-60.26195 116.22208-64.66383ZM223.9396-113.38724"/>
<use data-text="Q" xlink:href="#font_1_8" transform="matrix(10.9091,0,0,-10.9091,163.077,117.14398)" fill="#00a6d6"/>
<use data-text="u" xlink:href="#font_1_29" transform="matrix(10.9091,0,0,-10.9091,171.56427,117.14398)" fill="#00a6d6"/>
<use data-text="e" xlink:href="#font_1_15" transform="matrix(10.9091,0,0,-10.9091,178.22974,117.14398)" fill="#00a6d6"/>
<use data-text="s" xlink:href="#font_1_27" transform="matrix(10.9091,0,0,-10.9091,184.2952,117.14398)" fill="#00a6d6"/>
<use data-text="t" xlink:href="#font_1_28" transform="matrix(10.9091,0,0,-10.9091,190.36066,117.14398)" fill="#00a6d6"/>
<use data-text="i" xlink:href="#font_1_19" transform="matrix(10.9091,0,0,-10.9091,193.9934,117.14398)" fill="#00a6d6"/>
<use data-text="o" xlink:href="#font_1_24" transform="matrix(10.9091,0,0,-10.9091,197.02613,117.14398)" fill="#00a6d6"/>
<use data-text="n" xlink:href="#font_1_23" transform="matrix(10.9091,0,0,-10.9091,203.69159,117.14398)" fill="#00a6d6"/>
<use data-text="H" xlink:href="#font_1_4" transform="matrix(10.9091,0,0,-10.9091,213.98979,117.14398)" fill="#00a6d6"/>
<use data-text="o" xlink:href="#font_1_24" transform="matrix(10.9091,0,0,-10.9091,221.86617,117.14398)" fill="#00a6d6"/>
<use data-text="u" xlink:href="#font_1_29" transform="matrix(10.9091,0,0,-10.9091,228.53163,117.14398)" fill="#00a6d6"/>
<use data-text="r" xlink:href="#font_1_26" transform="matrix(10.9091,0,0,-10.9091,235.1971,117.14398)" fill="#00a6d6"/>
<path transform="matrix(1,0,0,-1,31.181,28.345993)" d="M342.99659-121.35745V-133.76383C342.99659-138.16571 346.5649-141.73404 350.96678-141.73404H442.74388C447.14576-141.73404 450.71409-138.16571 450.71409-133.76383V-121.35745C450.71409-116.95557 447.14576-113.38724 442.74388-113.38724H350.96678C346.5649-113.38724 342.99659-116.95557 342.99659-121.35745ZM450.71409-141.73404" fill="#ffffff"/>
<path transform="matrix(1,0,0,-1,31.181,28.345993)" stroke-width=".79701" stroke-linecap="butt" stroke-miterlimit="10" stroke-linejoin="miter" fill="none" stroke="#00a6d6" d="M342.99659-121.35745V-133.76383C342.99659-138.16571 346.5649-141.73404 350.96678-141.73404H442.74388C447.14576-141.73404 450.71409-138.16571 450.71409-133.76383V-121.35745C450.71409-116.95557 447.14576-113.38724 442.74388-113.38724H350.96678C346.5649-113.38724 342.99659-116.95557 342.99659-121.35745ZM450.71409-141.73404"/>
<use data-text="Q" xlink:href="#font_1_8" transform="matrix(10.9091,0,0,-10.9091,389.848,159.663)" fill="#00a6d6"/>
<use data-text="u" xlink:href="#font_1_29" transform="matrix(10.9091,0,0,-10.9091,398.33528,159.663)" fill="#00a6d6"/>
<use data-text="e" xlink:href="#font_1_15" transform="matrix(10.9091,0,0,-10.9091,405.00074,159.663)" fill="#00a6d6"/>
<use data-text="s" xlink:href="#font_1_27" transform="matrix(10.9091,0,0,-10.9091,411.0662,159.663)" fill="#00a6d6"/>
<use data-text="t" xlink:href="#font_1_28" transform="matrix(10.9091,0,0,-10.9091,417.13166,159.663)" fill="#00a6d6"/>
<use data-text="i" xlink:href="#font_1_19" transform="matrix(10.9091,0,0,-10.9091,420.76438,159.663)" fill="#00a6d6"/>
<use data-text="o" xlink:href="#font_1_24" transform="matrix(10.9091,0,0,-10.9091,423.7971,159.663)" fill="#00a6d6"/>
<use data-text="n" xlink:href="#font_1_23" transform="matrix(10.9091,0,0,-10.9091,430.46257,159.663)" fill="#00a6d6"/>
<use data-text="H" xlink:href="#font_1_4" transform="matrix(10.9091,0,0,-10.9091,440.76075,159.663)" fill="#00a6d6"/>
<use data-text="o" xlink:href="#font_1_24" transform="matrix(10.9091,0,0,-10.9091,448.63713,159.663)" fill="#00a6d6"/>
<use data-text="u" xlink:href="#font_1_29" transform="matrix(10.9091,0,0,-10.9091,455.30259,159.663)" fill="#00a6d6"/>
<use data-text="r" xlink:href="#font_1_26" transform="matrix(10.9091,0,0,-10.9091,461.96806,159.663)" fill="#00a6d6"/>
<path transform="matrix(1,0,0,-1,31.181,28.345993)" d="M456.3838-152.53911V-218.80426C456.3838-223.20615 459.95213-226.77448 464.35404-226.77448H556.1311C560.533-226.77448 564.1013-223.20615 564.1013-218.80426V-152.53911C564.1013-148.13722 560.533-144.5689 556.1311-144.5689H464.35404C459.95213-144.5689 456.3838-148.13722 456.3838-152.53911ZM564.1013-226.77448" fill="#ffffff"/>
<use data-text="M" xlink:href="#font_1_6" transform="matrix(10.9091,0,0,-10.9091,508.792,183.73499)" fill="#00a6d6"/>
<use data-text="a" xlink:href="#font_1_12" transform="matrix(10.9091,0,0,-10.9091,517.8793,183.73499)" fill="#00a6d6"/>
<use data-text="t" xlink:href="#font_1_28" transform="matrix(10.9091,0,0,-10.9091,523.9447,183.73499)" fill="#00a6d6"/>
<use data-text="e" xlink:href="#font_1_15" transform="matrix(10.9091,0,0,-10.9091,527.57748,183.73499)" fill="#00a6d6"/>
<use data-text="r" xlink:href="#font_1_26" transform="matrix(10.9091,0,0,-10.9091,533.6429,183.73499)" fill="#00a6d6"/>
<use data-text="i" xlink:href="#font_1_19" transform="matrix(10.9091,0,0,-10.9091,537.88656,183.73499)" fill="#00a6d6"/>
<use data-text="a" xlink:href="#font_1_12" transform="matrix(10.9091,0,0,-10.9091,540.91928,183.73499)" fill="#00a6d6"/>
<use data-text="l" xlink:href="#font_1_21" transform="matrix(10.9091,0,0,-10.9091,546.9847,183.73499)" fill="#00a6d6"/>
<use data-text="s" xlink:href="#font_1_27" transform="matrix(10.9091,0,0,-10.9091,550.0174,183.73499)" fill="#00a6d6"/>
<use data-text="f" xlink:href="#font_1_16" transform="matrix(10.9091,0,0,-10.9091,559.7156,183.73499)" fill="#00a6d6"/>
<use data-text="o" xlink:href="#font_1_24" transform="matrix(10.9091,0,0,-10.9091,563.1301,183.73499)" fill="#00a6d6"/>
<use data-text="r" xlink:href="#font_1_26" transform="matrix(10.9091,0,0,-10.9091,569.7956,183.73499)" fill="#00a6d6"/>
<use data-text="n" xlink:href="#font_1_23" transform="matrix(10.9091,0,0,-10.9091,513.309,197.28398)" fill="#00a6d6"/>
<use data-text="e" xlink:href="#font_1_15" transform="matrix(10.9091,0,0,-10.9091,519.9745,197.28398)" fill="#00a6d6"/>
<use data-text="x" xlink:href="#font_1_31" transform="matrix(10.9091,0,0,-10.9091,525.8763,197.28398)" fill="#00a6d6"/>
<use data-text="t" xlink:href="#font_1_28" transform="matrix(10.9091,0,0,-10.9091,531.9417,197.28398)" fill="#00a6d6"/>
<use data-text="w" xlink:href="#font_1_30" transform="matrix(10.9091,0,0,-10.9091,539.2072,197.28398)" fill="#00a6d6"/>
<use data-text="e" xlink:href="#font_1_15" transform="matrix(10.9091,0,0,-10.9091,547.6945,197.28398)" fill="#00a6d6"/>
<use data-text="e" xlink:href="#font_1_15" transform="matrix(10.9091,0,0,-10.9091,553.75997,197.28398)" fill="#00a6d6"/>
<use data-text="k" xlink:href="#font_1_20" transform="matrix(10.9091,0,0,-10.9091,559.8254,197.28398)" fill="#00a6d6"/>
<use data-text=":" xlink:href="#font_1_36" transform="matrix(10.9091,0,0,-10.9091,565.8908,197.28398)" fill="#00a6d6"/>
<use data-text="B" xlink:href="#font_1_40" transform="matrix(10.9091,0,0,-10.9091,506.316,216.81099)" fill="#00a6d6"/>
<use data-text="o" xlink:href="#font_1_24" transform="matrix(10.9091,0,0,-10.9091,514.1924,216.81099)" fill="#00a6d6"/>
<use data-text="o" xlink:href="#font_1_24" transform="matrix(10.9091,0,0,-10.9091,520.85787,216.81099)" fill="#00a6d6"/>
<use data-text="k" xlink:href="#font_1_20" transform="matrix(10.9091,0,0,-10.9091,527.5233,216.81099)" fill="#00a6d6"/>
<use data-text="c" xlink:href="#font_1_13" transform="matrix(10.9091,0,0,-10.9091,537.2215,216.81099)" fill="#00a6d6"/>
<use data-text="h" xlink:href="#font_1_18" transform="matrix(10.9091,0,0,-10.9091,543.17788,216.81099)" fill="#00a6d6"/>
<use data-text="a" xlink:href="#font_1_12" transform="matrix(10.9091,0,0,-10.9091,549.8433,216.81099)" fill="#00a6d6"/>
<use data-text="p" xlink:href="#font_1_25" transform="matrix(10.9091,0,0,-10.9091,555.90878,216.81099)" fill="#00a6d6"/>
<use data-text="t" xlink:href="#font_1_28" transform="matrix(10.9091,0,0,-10.9091,562.5742,216.81099)" fill="#00a6d6"/>
<use data-text="e" xlink:href="#font_1_15" transform="matrix(10.9091,0,0,-10.9091,566.207,216.81099)" fill="#00a6d6"/>
<use data-text="r" xlink:href="#font_1_26" transform="matrix(10.9091,0,0,-10.9091,572.2724,216.81099)" fill="#00a6d6"/>
<use data-text="P" xlink:href="#font_1_7" transform="matrix(10.9091,0,0,-10.9091,506.06703,236.33798)" fill="#00a6d6"/>
<use data-text="r" xlink:href="#font_1_26" transform="matrix(10.9091,0,0,-10.9091,513.3434,236.33798)" fill="#00a6d6"/>
<use data-text="o" xlink:href="#font_1_24" transform="matrix(10.9091,0,0,-10.9091,517.36886,236.33798)" fill="#00a6d6"/>
<use data-text="g" xlink:href="#font_1_17" transform="matrix(10.9091,0,0,-10.9091,524.0343,236.33798)" fill="#00a6d6"/>
<use data-text="r" xlink:href="#font_1_26" transform="matrix(10.9091,0,0,-10.9091,530.69979,236.33798)" fill="#00a6d6"/>
<use data-text="a" xlink:href="#font_1_12" transform="matrix(10.9091,0,0,-10.9091,534.9434,236.33798)" fill="#00a6d6"/>
<use data-text="m" xlink:href="#font_1_22" transform="matrix(10.9091,0,0,-10.9091,541.00888,236.33798)" fill="#00a6d6"/>
<use data-text="m" xlink:href="#font_1_22" transform="matrix(10.9091,0,0,-10.9091,550.70706,236.33798)" fill="#00a6d6"/>
<use data-text="i" xlink:href="#font_1_19" transform="matrix(10.9091,0,0,-10.9091,560.4052,236.33798)" fill="#00a6d6"/>
<use data-text="n" xlink:href="#font_1_23" transform="matrix(10.9091,0,0,-10.9091,563.4379,236.33798)" fill="#00a6d6"/>
<use data-text="g" xlink:href="#font_1_17" transform="matrix(10.9091,0,0,-10.9091,570.1034,236.33798)" fill="#00a6d6"/>
<use data-text="a" xlink:href="#font_1_12" transform="matrix(10.9091,0,0,-10.9091,511.10704,249.887)" fill="#00a6d6"/>
<use data-text="s" xlink:href="#font_1_27" transform="matrix(10.9091,0,0,-10.9091,517.1725,249.887)" fill="#00a6d6"/>
<use data-text="s" xlink:href="#font_1_27" transform="matrix(10.9091,0,0,-10.9091,523.2379,249.887)" fill="#00a6d6"/>
<use data-text="i" xlink:href="#font_1_19" transform="matrix(10.9091,0,0,-10.9091,529.30337,249.887)" fill="#00a6d6"/>
<use data-text="g" xlink:href="#font_1_17" transform="matrix(10.9091,0,0,-10.9091,532.33609,249.887)" fill="#00a6d6"/>
<use data-text="n" xlink:href="#font_1_23" transform="matrix(10.9091,0,0,-10.9091,539.0015,249.887)" fill="#00a6d6"/>
<use data-text="m" xlink:href="#font_1_22" transform="matrix(10.9091,0,0,-10.9091,545.667,249.887)" fill="#00a6d6"/>
<use data-text="e" xlink:href="#font_1_15" transform="matrix(10.9091,0,0,-10.9091,555.3652,249.887)" fill="#00a6d6"/>
<use data-text="n" xlink:href="#font_1_23" transform="matrix(10.9091,0,0,-10.9091,561.4306,249.887)" fill="#00a6d6"/>
<use data-text="t" xlink:href="#font_1_28" transform="matrix(10.9091,0,0,-10.9091,568.09609,249.887)" fill="#00a6d6"/>
<path transform="matrix(1,0,0,-1,31.181,28.345993)" stroke-width="1.19553" stroke-linecap="butt" stroke-dasharray="2.98883,2.98883" stroke-miterlimit="10" stroke-linejoin="miter" fill="none" stroke="#00a6d6" d="M564.1013-184.25424H577.3183"/>
<path transform="matrix(1,0,0,-1,608.49929,212.60024)" stroke-width=".9564" stroke-linecap="round" stroke-linejoin="round" fill="none" stroke="#00a6d6" d="M-1.91284 2.55046C-1.75343 1.59402 0 .15938 .4782 0 0-.15938-1.75343-1.59402-1.91284-2.55046"/>
<path transform="matrix(1,0,0,-1,31.181,28.345993)" d="M456.3838-122.20781V-133.76383C456.3838-138.16571 459.95213-141.73404 464.35404-141.73404H556.1311C560.533-141.73404 564.1013-138.16571 564.1013-133.76383V-122.20781C564.1013-117.80592 560.533-114.2376 556.1311-114.2376H464.35404C459.95213-114.2376 456.3838-117.80592 456.3838-122.20781ZM564.1013-141.73404" fill="#ffb81c"/>
<use data-text="B" xlink:href="#font_1_40" transform="matrix(10.9091,0,0,-10.9091,509.285,159.08798)" fill="#ffffff"/>
<use data-text="u" xlink:href="#font_1_29" transform="matrix(10.9091,0,0,-10.9091,517.1614,159.08798)" fill="#ffffff"/>
<use data-text="d" xlink:href="#font_1_14" transform="matrix(10.9091,0,0,-10.9091,523.82687,159.08798)" fill="#ffffff"/>
<use data-text="d" xlink:href="#font_1_14" transform="matrix(10.9091,0,0,-10.9091,530.38327,159.08798)" fill="#ffffff"/>
<use data-text="y" xlink:href="#font_1_32" transform="matrix(10.9091,0,0,-10.9091,536.8851,159.08798)" fill="#ffffff"/>
<use data-text="c" xlink:href="#font_1_13" transform="matrix(10.9091,0,0,-10.9091,542.9505,159.08798)" fill="#ffffff"/>
<use data-text="h" xlink:href="#font_1_18" transform="matrix(10.9091,0,0,-10.9091,548.90689,159.08798)" fill="#ffffff"/>
<use data-text="e" xlink:href="#font_1_15" transform="matrix(10.9091,0,0,-10.9091,555.5723,159.08798)" fill="#ffffff"/>
<use data-text="c" xlink:href="#font_1_13" transform="matrix(10.9091,0,0,-10.9091,561.63778,159.08798)" fill="#ffffff"/>
<use data-text="k" xlink:href="#font_1_20" transform="matrix(10.9091,0,0,-10.9091,567.485,159.08798)" fill="#ffffff"/>
<path transform="matrix(1,0,0,-1,31.181,28.345993)" d="M2.83484-122.20781V-133.76383C2.83484-138.16571 6.40317-141.73404 10.80505-141.73404H102.58215C106.98404-141.73404 110.55237-138.16571 110.55237-133.76383V-122.20781C110.55237-117.80592 106.98404-114.2376 102.58215-114.2376H10.80505C6.40317-114.2376 2.83484-117.80592 2.83484-122.20781ZM110.55237-141.73404" fill="#ffb81c"/>
<use data-text="D" xlink:href="#font_1_1" transform="matrix(10.9091,0,0,-10.9091,65.14,160.25499)" fill="#ffffff"/>
<use data-text="e" xlink:href="#font_1_15" transform="matrix(10.9091,0,0,-10.9091,73.01637,160.25499)" fill="#ffffff"/>
<use data-text="a" xlink:href="#font_1_12" transform="matrix(10.9091,0,0,-10.9091,79.08183,160.25499)" fill="#ffffff"/>
<use data-text="d" xlink:href="#font_1_14" transform="matrix(10.9091,0,0,-10.9091,85.14729,160.25499)" fill="#ffffff"/>
<use data-text="l" xlink:href="#font_1_21" transform="matrix(10.9091,0,0,-10.9091,91.812747,160.25499)" fill="#ffffff"/>
<use data-text="i" xlink:href="#font_1_19" transform="matrix(10.9091,0,0,-10.9091,94.845478,160.25499)" fill="#ffffff"/>
<use data-text="n" xlink:href="#font_1_23" transform="matrix(10.9091,0,0,-10.9091,97.878208,160.25499)" fill="#ffffff"/>
<use data-text="e" xlink:href="#font_1_15" transform="matrix(10.9091,0,0,-10.9091,104.54367,160.25499)" fill="#ffffff"/>
<path transform="matrix(1,0,0,-1,31.181,28.345993)" stroke-width="1.19553" stroke-linecap="butt" stroke-dasharray="2.98883,2.98883" stroke-miterlimit="10" stroke-linejoin="miter" fill="none" stroke="#ffb81c" d="M564.1013-127.56062H577.3183"/>
<path transform="matrix(1,0,0,-1,608.49929,155.90662)" stroke-width=".9564" stroke-linecap="round" stroke-linejoin="round" fill="none" stroke="#ffb81c" d="M-1.91284 2.55046C-1.75343 1.59402 0 .15938 .4782 0 0-.15938-1.75343-1.59402-1.91284-2.55046"/>
<path transform="matrix(1,0,0,-1,31.181,28.345993)" stroke-width="1.19553" stroke-linecap="butt" stroke-dasharray="2.98883,2.98883" stroke-miterlimit="10" stroke-linejoin="miter" fill="none" stroke="#ffb81c" d="M-28.3468-127.56062H1.87842"/>
<path transform="matrix(1,0,0,-1,33.05942,155.90662)" stroke-width=".9564" stroke-linecap="round" stroke-linejoin="round" fill="none" stroke="#ffb81c" d="M-1.91284 2.55046C-1.75343 1.59402 0 .15938 .4782 0 0-.15938-1.75343-1.59402-1.91284-2.55046"/>
<path transform="matrix(1,0,0,-1,31.181,28.345993)" d="M119.0565-67.49867V-108.25186C119.0565-112.65375 122.62483-116.22208 127.02672-116.22208H218.80426C223.20615-116.22208 226.77448-112.65375 226.77448-108.25186V-67.49867C226.77448-63.09679 223.20615-59.52846 218.80426-59.52846H127.02672C122.62483-59.52846 119.0565-63.09679 119.0565-67.49867ZM226.77448-116.22208" fill="#80cdbb"/>
<use data-text="P" xlink:href="#font_1_7" transform="matrix(10.9091,0,0,-10.9091,165.306,112.27699)" fill="#ffffff"/>
<use data-text="y" xlink:href="#font_1_32" transform="matrix(10.9091,0,0,-10.9091,172.58237,112.27699)" fill="#ffffff"/>
<use data-text="t" xlink:href="#font_1_28" transform="matrix(10.9091,0,0,-10.9091,178.64783,112.27699)" fill="#ffffff"/>
<use data-text="h" xlink:href="#font_1_18" transform="matrix(10.9091,0,0,-10.9091,182.28057,112.27699)" fill="#ffffff"/>
<use data-text="o" xlink:href="#font_1_24" transform="matrix(10.9091,0,0,-10.9091,188.94603,112.27699)" fill="#ffffff"/>
<use data-text="n" xlink:href="#font_1_23" transform="matrix(10.9091,0,0,-10.9091,195.6115,112.27699)" fill="#ffffff"/>
<use data-text="t" xlink:href="#font_1_28" transform="matrix(10.9091,0,0,-10.9091,205.9097,112.27699)" fill="#ffffff"/>
<use data-text="u" xlink:href="#font_1_29" transform="matrix(10.9091,0,0,-10.9091,209.54244,112.27699)" fill="#ffffff"/>
<use data-text="t" xlink:href="#font_1_28" transform="matrix(10.9091,0,0,-10.9091,216.2079,112.27699)" fill="#ffffff"/>
<use data-text="o" xlink:href="#font_1_24" transform="matrix(10.9091,0,0,-10.9091,219.84064,112.27699)" fill="#ffffff"/>
<use data-text="r" xlink:href="#font_1_26" transform="matrix(10.9091,0,0,-10.9091,226.5061,112.27699)" fill="#ffffff"/>
<use data-text="i" xlink:href="#font_1_19" transform="matrix(10.9091,0,0,-10.9091,230.74974,112.27699)" fill="#ffffff"/>
<use data-text="a" xlink:href="#font_1_12" transform="matrix(10.9091,0,0,-10.9091,233.78247,112.27699)" fill="#ffffff"/>
<use data-text="l" xlink:href="#font_1_21" transform="matrix(10.9091,0,0,-10.9091,239.84793,112.27699)" fill="#ffffff"/>
<use data-text="(" xlink:href="#font_1_38" transform="matrix(10.9091,0,0,-10.9091,164.077,125.82599)" fill="#ffffff"/>
<use data-text="Q" xlink:href="#font_1_8" transform="matrix(10.9091,0,0,-10.9091,167.70973,125.82599)" fill="#ffffff"/>
<use data-text="1" xlink:href="#font_1_33" transform="matrix(10.9091,0,0,-10.9091,176.197,125.82599)" fill="#ffffff"/>
<use data-text="w" xlink:href="#font_1_30" transform="matrix(10.9091,0,0,-10.9091,185.8952,125.82599)" fill="#ffffff"/>
<use data-text="e" xlink:href="#font_1_15" transform="matrix(10.9091,0,0,-10.9091,194.38248,125.82599)" fill="#ffffff"/>
<use data-text="e" xlink:href="#font_1_15" transform="matrix(10.9091,0,0,-10.9091,200.44794,125.82599)" fill="#ffffff"/>
<use data-text="k" xlink:href="#font_1_20" transform="matrix(10.9091,0,0,-10.9091,206.5134,125.82599)" fill="#ffffff"/>
<use data-text="s" xlink:href="#font_1_27" transform="matrix(10.9091,0,0,-10.9091,212.57886,125.82599)" fill="#ffffff"/>
<use data-text="2" xlink:href="#font_1_34" transform="matrix(10.9091,0,0,-10.9091,222.28797,125.82599)" fill="#ffffff"/>
<use data-text="&#x2013;" xlink:href="#font_1_37" transform="matrix(10.9091,0,0,-10.9091,228.35343,125.82599)" fill="#ffffff"/>
<use data-text="5" xlink:href="#font_1_35" transform="matrix(10.9091,0,0,-10.9091,234.41889,125.82599)" fill="#ffffff"/>
<use data-text=")" xlink:href="#font_1_39" transform="matrix(10.9091,0,0,-10.9091,240.48435,125.82599)" fill="#ffffff"/>
</svg>
